<svg id="svg" xmlns="http://www.w3.org/2000/svg" xmlns:xlink="http://www.w3.org/1999/xlink" version="1.1" width="755.9999465942383" height="757.3499464988708" preserveAspectRatio="xMidYMid meet" buffered-rendering="static" style="background: rgb(255, 255, 255);" viewBox="4 166.15 732.08 590.94"><g><path d="M 396.75 166.15607236383653 C 396.0625 166.24191216394664 390.325 166.65596550765272 384 167.07619090540564 C 377.675 167.49641630315855 370.25 168.61842884795095 367.5 169.56955211605543 C 364.75 170.52067538415992 357.55 171.6491024840754 351.5 172.0771678936454 C 345.45 172.5052333032154 334.875 173.33867668842095 328 173.92926430521328 C 321.125 174.5198519220056 313.475 175.65678652797297 311 176.4557856518074 C 307.8194557744299 177.48255415667495 303.5678760568224 180.596733037921 296.5 187.0766834773993 C 288.63484764923317 194.2875905479498 284.5786371156901 197.1614925601512 277.5 200.53854345243636 C 271.8815736605709 203.21896220716405 263.80336991587376 208.46481260739762 256 214.50028385531476 C 249.125 219.8177127708686 238.60519876837853 228.967960732513 232.62266392973004 234.83416821452454 C 226.64012909108155 240.70037569653604 218.31512909108156 248.87909463460693 214.12266392973004 253.00909918801537 C 209.93019876837852 257.1391037414238 204.27154463343786 263.66410374142384 201.54787696319522 267.5090991880154 C 198.8242092929526 271.3540946346069 195.15713014245614 277.65 193.39881218431418 281.5 C 191.64049422617225 285.35 189.73267830936223 290.3 189.1592212580697 292.5 C 188.58576420677713 294.7 187.41978810988417 299.65 186.5681632649742 303.5 C 185.2371273021442 309.51730737134307 185.16173184127985 314.0096165309177 186.0310998835467 335.5 C 186.58733986867148 349.25 187.4462769164234 368.15 187.93984887855092 377.5 C 188.43342084067845 386.85 189.54887064569303 397.5375 190.41862622302776 401.25 C 191.2883818003625 404.9625 194.05775738426527 412.1625 196.57279418725614 417.25 C 199.087830990247 422.3375 202.21904485215418 429.65 203.53104721371653 433.5 C 204.84304957527888 437.35 206.97332648746192 443.2 208.26499590745664 446.5 C 209.55666532745133 449.8 211.97925063498153 454.525 213.64851881307928 457 C 215.31778699117703 459.475 218.31168886884095 464.425 220.30163409677684 468 C 222.29157932471273 471.575 225.90915351275967 479.9 228.34068784799223 486.5 C 230.77222218322478 493.1 234.1992079781233 501.65 235.95621183665554 505.5 C 238.3184445878594 510.67619585635515 239.28214374675196 514.4540758681909 239.6550158643547 520 C 239.93235422105695 524.125 240.56891064514133 528.625 241.0695856956533 530 C 241.57026074616527 531.375 243.91165913933582 533.85 246.27269323603227 535.5 C 250.125682705691 538.1926475283996 250.75058665045853 539.2171557670677 252.3722434512651 545.5 C 253.36596197294668 549.35 255.2637284098272 556.2125 256.58950219988856 560.75 C 257.91527598994986 565.2875 259 571.025 259 573.5 C 259 575.975 258.47818034459283 579.0125 257.8404007657618 580.25 C 257.20262118693074 581.4875 253.94012118693075 585.5855372571552 250.59040076576179 589.3567494603449 C 247.2363751139854 593.1328086167614 240.23171543504992 599.191723331739 235 602.8421881457014 C 229.775 606.4879672194577 224.15 610.6568262259717 222.5 612.1063192712882 C 220.85 613.5558123166047 216.35 616.3445919121542 212.5 618.3036072613984 C 208.65 620.2626226106424 203.025 623.9129141721082 200 626.415366286878 C 196.975 628.9178184016477 193.6 631.4053688323087 192.5 631.9432561327914 C 191.4 632.481143433274 186.675 634.4664389281825 182 636.3550238992544 C 177.325 638.2436088703264 169.225 641.5610710381255 164 643.7271620499191 C 158.775 645.8932530617127 152.025 648.4339792024371 149 649.3732201404175 C 145.975 650.3124610783981 137.425 653.9632928485191 130 657.4861796295753 C 122.575 661.0090664106315 109.075 666.2429775614087 100 669.117093297969 C 90.925 671.9912090345293 79 676.5721278766946 73.5 679.2969129472252 C 68 682.0216980177559 59.9 685.5803479843311 55.5 687.2050239840592 C 51.1 688.8296999837872 43 691.7160869778193 37.5 693.6192173041302 C 32 695.5223476304412 25.925 698.0220403573871 24 699.1740900306768 C 22.075 700.3261397039663 17.01274187081284 704.4707624952279 12.750537490695194 708.384362900147 L 5.0010749813903885 715.5 L 5.000537490695194 719.25 C 5.0000650108006965 722.5464284223135 5.272142946611905 722.9697618948209 7.25 722.75 C 9.191176470588236 722.5343137254902 9.534313725490197 723.0147058823529 9.75 726.25 C 9.95138888888889 729.2708333333334 9.416666666666666 730.5833333333334 7 733 L 4 736 L 4.25 746.5330037351648 L 4.5 757.0660074703297 L 14.938330967621226 756.7830037351648 L 25.376661935242453 756.5 L 26.188330967621226 753.25 C 26.634748935429553 751.4625 27.45 750 28 750 C 28.55 750 29 751.575 29 753.5 L 29 757 L 80 757 L 131 757 L 132.75 754.4732897853837 L 134.5 751.9465795707674 L 136.3574775353234 753.7232897853837 C 137.37909017975127 754.7004804034227 139.62909017975127 755.6506973103043 141.3574775353234 755.8348829117872 C 143.08586489089552 756.0190685132701 155.8625 756.3565685132702 169.75 756.5848829117872 L 195 757 L 196.5 754 C 197.325 752.35 198.675 751 199.5 751 C 200.66794282797346 751 200.83397141398672 751.6692386831276 200.25 754.023148148148 L 199.5 757.0462962962962 L 202.5 757.0628317482926 C 204.83025146063216 757.0756756686817 205.77480906070363 756.4565716947908 206.73095032486233 754.2896836001446 C 207.40797300353663 752.7553576200651 208.87047300353663 751.1625 209.98095032486233 750.75 C 211.09142764618804 750.3375 212.45 748.65 213 747 C 213.8148148148148 744.5555555555555 214.55555555555554 744 217 744 C 219.17753431183777 744 220.00931371973041 744.479771651428 220.03397243142587 745.75 C 220.05265726871008 746.7125 218.68736967456843 749.3 217 751.5 C 215.3126303254316 753.7 213.94734273128995 755.8375 213.96602756857416 756.25 C 213.98471240585837 756.6625 215.6875 757.0075000000012 217.75 757.0166666666694 C 219.8125 757.0258333333376 222.0625 756.4633333333376 222.75 755.7666666666694 L 223.99999999999997 754.5 L 225.25 755.7666666666694 C 226.09962084802075 756.6276157926656 229.78310904622978 757.0279949446449 236.75 757.0166666666694 L 247 757 L 246.3886438633244 755.25 L 245.7772877266488 753.5 L 246.3886438633244 750.75 C 246.724889738496 749.2375 247.45 748 248 748 C 248.55 748 249.45 750.025 250 752.5 L 251 757 L 277.5 757 C 292.075 757 304 756.775 304 756.5 C 304 756.225 300.9625 754.0555871036712 297.25 751.6790824526028 C 293.5375 749.3025778015343 290.1625 746.6025778015343 289.75 745.6790824526028 C 289.1919451999331 744.4297224227587 289.7037990664215 743.6945866558588 291.75 742.8066385187766 C 293.2625 742.1502897041037 295.2972698309208 740.9127897041037 296.27171073537954 740.0566385187766 C 297.65860876318067 738.8380993698179 298.5274022967842 738.7374069090355 300.27171073537954 739.5930417865832 C 301.4972698309208 740.1942147692039 304.4055892732776 743.7942147692039 306.7346428295058 747.5930417865832 C 309.063696385734 751.3918688039624 310.97619638573394 755.0625 310.9846428295058 755.75 C 310.9946715332866 756.5662883736102 312.64810418028134 757.0148904042522 315.75 757.0429156245366 L 320.5 757.0858312490733 L 317.71999801413085 753.7929156245366 C 316.19099692190275 751.9818120310415 311.9159969219028 746.0963137511548 308.21999801413085 740.7140305581215 C 304.5239991063589 735.3317473650884 300.166527345546 728.8067473650884 298.5367274345467 726.2140305581215 C 296.90692752354744 723.6213137511547 291.904170302208 716.325 287.4194891649036 710 C 282.9348080275992 703.675 278.4640311899686 697.825 277.4844295257244 697 C 276.5048278614803 696.175 274.56693599603705 693.7 273.1780031580728 691.5 C 271.78907032010846 689.3 270.09398736271186 685.025 269.41115214163585 682 C 268.72831692055985 678.975 266.92813819962277 673.125 265.4107549839979 669 C 263.09819112912083 662.7133047188481 262.58163814137384 659.4778254685865 262.2177010479835 649 C 261.96007279760295 641.5828284824789 262.23416403682177 634.7718383159572 262.8917628429162 632.25 C 263.5012932793123 629.9125 265.19842351985085 626.7625 266.6631633774463 625.25 C 268.53600500179004 623.3160914345091 269.88068884672646 620.1259158268826 271.194372035211 614.5 C 272.2217969393861 610.1 273.44806189004146 605.825 273.9194052588897 605 C 274.3907486277379 604.175 275.1642047317438 603.7826024836323 275.638196601125 604.128005519183 C 276.1121884705062 604.4734085547337 278.5916518964848 608.2984085547337 281.1481153255218 612.628005519183 C 283.70457875455884 616.9576024836324 287.3045787545588 621.9261265722032 289.1481153255218 623.6691701604516 C 290.9916518964848 625.4122137486999 296.775 630.2385930046811 302 634.3944573959654 C 307.225 638.5503217872497 313.975 643.2657133468132 317 644.8731053061066 C 320.025 646.4804972654 329.925 650.2606862718849 339 653.2735253205174 C 351.1631451057344 657.3116078030233 358.65407628673864 659.1652434875987 367.5 660.3258684450097 C 374.1 661.1918181148478 381.975 662.1594191542117 385 662.4760929769293 C 388.117375738453 662.8024372056708 395.04864631749876 662.362424933392 401 661.4603778528157 C 406.775 660.5850607118356 414.2 659.2471741555852 417.5 658.4872966167038 C 420.8 657.7274190778224 425.525 656.2564789338903 428 655.2185407412992 C 430.475 654.1806025487082 436.6625 650.5568198031285 441.75 647.1656901955669 C 446.8375 643.7745605880051 452.91947907077747 639.0875 455.26550904617216 636.75 C 457.61153902156684 634.4125 463.46153902156686 628.3375 468.26550904617216 623.25 C 473.06947907077745 618.1625 477.3375 614.1761425943962 477.75 614.3914279875471 C 478.1625 614.6067133806981 479.1293307796165 620.119213380698 479.89851284359224 626.6414279875471 C 480.667694907568 633.1636425943963 481.00519490756795 639.9625 480.64851284359224 641.75 C 480.27994475376624 643.59706641321 480.4316718728585 645.2158359364292 481 645.5 C 481.55 645.775 483.13035153699394 643.6375 484.51189230443094 640.75 C 485.893433071868 637.8625 487.018433071868 634.9375 487.01189230443094 634.25 C 487.00535153699394 633.5625 487.45 633 488 633 C 488.55 633 490.2991039234171 635.8125 491.88689760759354 639.25 C 493.47469129177 642.6875 497.2631800679122 651.35 500.3057615545762 658.5 C 503.3483430412402 665.65 506.36501009652716 673.525 507.00946612188056 676 C 507.67964678558815 678.5737941417597 507.89187046138716 682.4262058582403 507.50526283904344 685 C 507.1326987000648 687.4803013259798 504.6880935513415 693.3149863842605 502.05854778656607 698 C 499.4346223386173 702.675 493.1201785911089 714.6 488.02645056988075 724.5 C 482.9327225486526 734.4 477.0179733435633 745.5375 474.8825634474602 749.25 C 472.7471535513571 752.9625 471 756.225 471 756.5 C 471 756.775 482.475 757 496.5 757 L 522 757 L 523.25 754.9966834040258 C 523.9375 753.8948592762399 524.8375 752.9948592762399 525.25 752.9966834040258 C 525.6625 752.9985075318116 526.225 753.9 526.5 755 L 527 757 L 545 757 L 563 757 L 564.5077320282101 754.75 L 566.0154640564201 752.5 L 566.0077320282101 754.75 L 566 757 L 572 757 L 578 757 L 576.5 753.5 C 575.6428571428571 751.5 575 747 575 743 C 575 737 575.3571428571429 735.5714285714286 577.5 733 C 578.9444444444445 731.2666666666667 580 728.7333333333333 580 727 C 580 724.9231141712835 579.3877485477298 723.7692214571791 578.0102630704317 723.25 C 576.9159077591692 722.8375 575.7909077591692 721.4875 575.5102630704317 720.25 C 575.2296183816943 719.0125 575.5625 716.3469363739189 576.25 714.3265252753753 C 576.9375 712.3061141768317 578.0625 710.5061141768317 578.75 710.3265252753753 C 579.5300144043197 710.1227697408416 579.9907618569748 711.0339683104967 579.9754297176603 712.75 C 579.9619160623733 714.2625 580.6369160623734 717.1875 581.4754297176603 719.25 C 582.313943372947 721.3125 583.675 723.225 584.5 723.5 C 585.325 723.775 586 725.125 586 726.5 C 586 727.9989021153413 586.9009880961929 729.5771150551916 588.25 730.4412053607233 C 590.0885541280646 731.6188649453219 590.7459958097636 733.4932294730273 591.8452330178077 740.6912053607233 C 593.0397267143575 748.5129355231037 593.0117131064429 749.8641769028885 591.5952330178077 752.75 C 590.7178548580135 754.5375 589.4375 756.1841052275523 588.75 756.4091227278941 C 588.0625 756.6341402282358 594.8125 756.8591402282358 603.75 756.9091227278941 L 620 757 L 622.0287480247666 754.75 C 623.1445594383882 753.5125 624.2695594383882 751.7125 624.5287480247666 750.75 C 624.787936611145 749.7875 625.5625 749.1545169487385 626.25 749.3433709971966 C 626.9595530189831 749.5382829393503 627.5 751.267996821345 627.5 753.3440268032944 L 627.5 757.0013116121954 L 630.75 757.0006558060977 C 633.1663513593674 757.0001682190344 634.1282536370204 756.4869854519184 634.5 755 C 634.775 753.9 635.45 753 636 753 C 636.55 753 637.225 753.9 637.5 755 L 638 757 L 650.1056531597532 756.75 L 662.2113063195063 756.5 L 663.6056531597532 753.75 C 664.3725439218889 752.2375 665 750.55 665 750 C 665 749.45 663.9875 748.1398769916793 662.75 747.0886155370652 C 660.838116281022 745.4644622768908 660.5296173628778 744.2998395311483 660.6970891974609 739.3386155370652 C 660.8054882560643 736.1273769916794 661.0160805918357 732.375 661.1650721658417 731 C 661.3159989602785 729.6071404122338 660.284616574637 726.7285753404259 658.8361390552694 724.5 C 657.4062342704486 722.3 655.9581419346773 719.0375 655.6181560868886 717.25 C 655.2781702390998 715.4625 653.425 710.625 651.5 706.5 C 649.575 702.375 647.55 699 647 699 C 646.45 699 645.775 699.675 645.5 700.5 C 645.225 701.325 644.4375 702.0115713882419 643.75 702.0257141960932 C 643.0625 702.0398570039445 641.5279475151234 701.0273570039444 640.3398833669409 699.7757141960932 C 639.1518192187583 698.524071388242 637.1268192187583 695.4232909585955 635.8398833669409 692.8850910191013 C 634.5529475151234 690.346891079607 632.4875 686.409391079607 631.25 684.1350910191013 C 630.0125 681.8607909585955 627.1400479611858 678.7625 624.8667732470794 677.25 C 622.5934985329732 675.7375 621.1309985329732 674.3722900002354 621.6167732470794 674.216200000523 C 622.1025479611858 674.0601100008108 625.65 675.3371644280866 629.5 677.0540987278025 C 633.35 678.7710330275186 637.625 680.9674144668372 639 681.934946370733 C 640.375 682.9024782746287 643.075 684.2349335282231 645 684.8959580453873 C 646.925 685.5569825625513 649.175 686.7226046255411 650 687.4862292964756 C 650.825 688.24985396741 655.6625 690.9278442865398 660.75 693.4373188945418 C 665.8375 695.9467935025439 670.225 698 670.5 698 C 670.775 698 675.7999383933484 700.8125 681.6665297629963 704.25 C 688.5687936530192 708.2943471561199 693.8988700633824 712.264522275104 696.7699843511482 715.5 C 699.2102930049837 718.25 702.9770689518142 723.2 705.1405975663272 726.5 C 707.3041261808403 729.8 709.0575716161719 732.8375 709.0371429781754 733.25 C 709.016714340179 733.6625 708.55 734 708 734 C 707.45 734 705.7625 732.1814081519464 704.25 729.958684782103 C 702.7375 727.7359614122596 700.7125 725.9359614122596 699.75 725.958684782103 C 698.7875 725.9814081519463 697.8207666741457 726.5625 697.6017037203239 727.25 C 697.3826407665022 727.9375 698.1007445847323 732.55 699.1974899830576 737.5 C 700.7674299596428 744.5856945431112 700.9444159989731 746.925401212642 700.0295799445847 748.5 C 699.3904840250993 749.6 699.0098802068692 751.85 699.1837936818511 753.5 C 699.4568246408485 756.0903747963898 699.9437606372443 756.5341354336342 702.75 756.75 L 706 757 L 705.257138067173 754.25 C 704.848564004118 752.7375 704.5461567435152 750.15 704.5851219325002 748.5 C 704.6240871214851 746.85 705.0091432448926 743.7 705.4408022067391 741.5 L 706.2256366828237 737.5 L 707.2407060556648 740 C 707.7989942107273 741.375 708.6095923035696 744.525 709.0420351508698 747 C 709.47447799817 749.475 710.3169285267561 752.7375 710.9141474366169 754.25 C 711.6529296211858 756.1210192120693 712.7191660992161 756.9960436265008 714.25 756.9876219966666 L 716.5 756.975243993333 L 715.390342590192 748.7376219966666 C 714.7800310147975 744.2069298984999 713.7675310147976 739.4875 713.140342590192 738.25 C 712.2534132885456 736.5000075452165 712.2777819695647 736.0710516326576 713.25 736.3197275221323 C 713.9375 736.4955776593052 717.2 740.0293208546225 720.5 744.172490178393 C 723.8 748.3156595021635 727.4 752.9393080068204 728.5 754.447264633186 C 730.0173300608212 756.5273263782764 731.1732302602263 757.1058635797261 733.2896092363729 756.8445019769255 L 736.0792184727459 756.5 L 727.1359406613512 744.5 C 722.2171378650842 737.9 713.5368137087164 727.1129786820677 707.8463314249783 720.5288415157061 C 699.5892959863226 710.9750899697287 695.551803059427 707.2392753935927 687.8524003490882 702.0288415157061 C 682.5462205410865 698.4379786820678 673.9962205410866 693.3723019585073 668.8524003490882 690.7717821300162 C 663.7085801570896 688.1712623015252 655.884607276397 684.1212623015251 651.465793947549 681.7717821300162 C 647.0469806187009 679.4223019585073 639.1719806187009 675.514346036955 633.965793947549 673.0874356376777 C 628.759607276397 670.6605252384004 620.225 666.9868366446805 615 664.923683207189 C 609.775 662.8605297696975 597.85 658.0463435773842 588.5 654.225491668715 C 579.15 650.4046397600457 568.6875 645.8658283537657 565.25 644.1392440992037 C 561.1218159862298 642.0657437302989 556.198264778409 638.1992028981766 550.747236683772 632.75 C 546.2082168598466 628.2125 539.1207168598467 621.8592331225834 534.997236683772 618.6316291612966 C 530.8737565076974 615.4040252000098 524.8 611.5100906817298 521.5 609.9784413428968 C 518.2 608.4467920040638 511.225 605.5890128969818 506 603.6278211049367 C 499.6193671412506 601.2328651641459 495.59702530121695 599.066772621379 493.75 597.0310089233365 C 492.03466864963036 595.1403963308095 491 592.8712705640396 491 591 C 491 589.35 491.7323055933105 585.4125 492.6273457629122 582.25 C 493.5223859325139 579.0875 496.3768763450591 571.775 498.97065779079037 566 C 501.5644392365216 560.225 504.26535634888484 553.025 504.9726958182641 550 C 505.6800352876435 546.975 507.8295650273848 540.45 509.7494285732448 535.5 C 511.66929211910485 530.55 514.2482269517953 525.15 515.4803948681126 523.5 C 516.7125627844298 521.85 518.8925107334476 518.7 520.3247236437076 516.5 L 522.9287471169075 512.5 L 522.3285281293763 505 C 521.998407686234 500.875 522.2320123089472 494.575 522.8476495131833 491 C 523.4632867174194 487.425 524.2338861144087 479.1 524.5600926176041 472.5 C 524.8862991207997 465.9 525.9977615593674 456.225 527.0300091477549 451 C 528.0622567361423 445.775 530.2257349631902 437.675 531.8377385411948 433 C 533.4497421191992 428.325 535.5336931352598 422.475 536.4687407991072 420 C 537.4037884629546 417.525 538.5662309730761 411.9 539.0519463771552 407.5 C 539.5376617812342 403.1 540.8057424545838 396.8 541.8699034290432 393.5 C 542.9340644035026 390.2 544.5212791261438 382.325 545.3970472571347 376 C 546.2728153881255 369.675 547.4404848028514 359.1 547.9918681787476 352.5 C 548.5432515546438 345.9 549.8614514620275 337.8 550.921201306267 334.5 C 552.097721131354 330.8363850026574 552.9749590508616 324.7903150025735 553.1740096024421 318.973269619843 L 553.5 309.44653923968605 L 550.1615592136147 303.973269619843 C 548.3254167811028 300.96297132892937 545.0629167811028 297.2625 542.9115592136147 295.75 C 540.7602016461267 294.2375 538.0076444120432 291.0875 536.7947653600961 288.75 C 535.0054105080256 285.3014970680714 534.5067787009618 282.33124322757146 534.1507317579267 273 L 533.7119327956613 261.5 L 526.5027905781992 254.5 C 522.537762358595 250.65 517.8880596030041 245.25 516.1701177879969 242.5 C 514.4521759729897 239.75 513.0514956339125 236.825 513.0574948122696 236 C 513.0634939906269 235.175 511.3655118671941 232.3021731572012 509.28420120464136 229.615940349336 C 507.2028905420886 226.9297075414708 500.030842125323 219.0547075414708 493.3463158340511 212.115940349336 C 485.9838842971381 204.4734842983553 477.90232832167334 197.23926431353186 472.8463158340511 193.76532691064713 C 468.255842125323 190.61125671150305 461.8 187.02591996323184 458.5 185.79791191448885 C 453.66147132830673 183.99738095906068 450.08026806602766 183.52047357046368 440 183.33427440416511 L 427.5 183.10337880064677 L 424 180.05145895508448 C 422.075 178.37290304002522 417.8 175.0276104634393 414.5 172.61747545156015 C 410.6104740640869 169.77678374314917 406.653335193924 167.84226357585285 403.25 167.11770589679904 C 400.3625 166.50296765355958 397.4375 166.07023256372645 396.75 166.15607236383653 Z " class="odd" fill="#000000"></path><path d="M 408.73839216428325 320.25 C 408.88227647392745 321.2125 407.875 324.475 406.5 327.5 C 405.125 330.525 403.4375 333.0082661185392 402.75 333.01836915230945 C 401.8348278159043 333.0318179021006 401.70486271515324 332.02733445438776 402.2648062131574 329.26836915230945 C 402.685449630394 327.1957661185392 404.2552261043215 323.925 405.75319837744064 322 C 407.87145520499394 319.2778906083828 408.53492783670464 318.8889453041914 408.73839216428325 320.25 Z " class="even" fill="#ffffff"></path><path d="M 422.7214745640404 331.30594772778034 C 422.84328557426267 331.4126764775011 422.3428288074833 334.425 421.6093484156419 338 C 420.8758680238004 341.575 419.31991949213847 346.75 418.1516850119487 349.5 C 416.98345053175893 352.25 414.7839072985383 355.7136284388616 413.26381116034725 357.19695208635903 C 411.74371502215627 358.6802757338565 408.8125 360.5927757338565 406.75 361.44695208635903 C 404.6875 362.30112843886155 401.9875 362.7763957439431 400.75 362.5031016532069 C 399.5125 362.2298075624707 397.7125 361.1048075624707 396.75 360.0031016532069 L 395 358 L 396.75 356.34804437923344 C 397.7125 355.43946878781185 400.975 352.9949970640724 404 350.91588499314577 C 407.025 348.83677292221915 411.0807512078354 345.6426529515641 413.01278046185644 343.8178406139123 C 414.94480971587745 341.99302827626053 417.86980971587747 338.38767647750115 419.51278046185644 335.80594772778034 C 421.1557512078354 333.2242189780595 422.5996635538182 331.19921897805955 422.7214745640404 331.30594772778034 Z " class="even" fill="#ffffff"></path><path d="M 361.75 340.95547464893014 C 362.9926578914109 340.9800656617634 364.93804397154673 342.23119591049783 366.09521563526835 343.75 C 367.711291861293 345.87112278409876 368.06776568352865 347.41473049585636 367.65403027564804 350.5 C 367.2391658442515 353.5936887541206 366.1944838959259 355.2930223401445 363.0433318954822 358 L 358.96903451020506 361.5 L 358.96255525461163 370 C 358.9579483160007 376.04374648109274 358.4338951255606 379.65588400889754 357.1490404506826 382.5 C 356.15517089909804 384.7 353.80255379931896 387.7931193839795 351.92100245117354 389.3735986310656 C 350.03945110302806 390.9540778781517 346.7 393.14995039871883 344.5 394.253315343437 C 342.3 395.3566802881552 338.5875 398.0010609041757 336.25 400.1297167123714 C 333.02077176688186 403.0704291976833 330.8591374370144 404.15190514764475 327.25 404.6324595746434 C 324.6375 404.98031234069725 320.025 404.96428248295086 317 404.5968376685403 C 313.975 404.2293928541296 308.9488470085612 403.6072860455401 305.830771130136 403.2143780938968 C 302.71269525171084 402.8214701422536 300.35019525171083 402.1625 300.580771130136 401.75 C 300.8113470085612 401.3375 301.9 401 303 401 C 304.1 401 309.6125 398.80645344062935 315.25 396.12545209028747 C 320.8875 393.4444507399456 329.325 388.7050197066987 334 385.59338312751663 C 338.675 382.4817465483346 343.0625 379.95029310770525 343.75 379.96793103722916 C 344.4375 379.98556896675314 346.0399227957984 378.7625 347.31093954621866 377.25 C 348.5819562966389 375.7375 350.19338943273635 372.025 350.89190207087955 369 C 351.59041470902275 365.975 352.4123246497209 360.8 352.71836860576434 357.5 C 353.02441256180776 354.2 354.167436263803 349.7 355.25842127686485 347.5 C 356.34940628992666 345.3 357.7500735534301 342.9174635920185 358.3710151957614 342.20547464893014 C 358.9919568380926 341.4934857058417 360.5125 340.9309857058417 361.75 340.95547464893014 Z " class="even" fill="#ffffff"></path><path d="M 436 341 C 436.55 341 437.0022257381434 343.1375 437.0049460847631 345.75 C 437.0076664313828 348.3625 436.22016643138284 352.6972762196115 435.2549460847631 355.38283604358116 C 434.2897257381434 358.0683958675508 431.7 362.2201854458066 429.5 364.6090351063717 C 427.0923022026352 367.22341149999824 424.6043300110177 368.96187269676693 423.25 368.97619906279056 C 422.0125 368.98928957825575 420.9848321752956 368.6625 420.9662937228792 368.25 C 420.9477552704627 367.8375 422.0180747736556 366.375 423.34478150775226 365 C 424.6714882418489 363.625 427.3866560665533 361.0375 429.3784877848731 359.25 C 432.4712870424159 356.47447502868306 432.99758246814804 355.3795326547991 432.9834406911979 351.75 C 432.9743330713568 349.4125 433.4243330713568 346.0375 433.9834406911979 344.25 C 434.54254831103907 342.4625 435.45 341 436 341 Z " class="even" fill="#ffffff"></path><path d="M 456 348 C 456.55 348 457 348.675 457 349.5 C 457 350.325 456.55 350.775 456 350.5 C 455.45 350.225 455 349.55 455 349 C 455 348.45 455.45 348 456 348 Z " class="even" fill="#ffffff"></path><path d="M 329.5 349.06794718252866 C 330.14375972476034 349.010042569721 330.2270456550243 351.20842005771317 329.7337914493469 355.2389998141076 C 329.31237674648764 358.6825499163484 327.700234458037 364.2 326.15125303056766 367.5 C 324.49713929951497 371.0239772509036 321.0992968095319 375.70070583703745 317.91746158122083 378.8328407531972 C 314.9378577115494 381.7659031674557 310.7 385.2261064148707 308.5 386.52218130300827 C 306.3 387.81825619114585 302.1305127568355 389.24347785220715 299.23447279296784 389.68934054981105 C 294.8606293118259 390.36271994986424 293.9686990165826 390.24598448811565 293.96748955662895 389 C 293.96668874051016 388.175 294.53617598367464 386.74232288617253 295.23301676366106 385.81627308038344 C 295.9298575436475 384.8902232745943 298.83730926763263 382.41522327459427 301.6940205947392 380.31627308038344 C 304.5507319218458 378.21732288617255 309.2473881237002 373.35 312.1310343766379 369.5 C 315.01468062957554 365.65 318.07737136194294 360.51681843394636 318.93701378189866 358.0929298532141 C 319.7966562018544 355.6690412724819 321.625 352.92070436596333 323 351.98551450539514 C 324.375 351.0503246448269 326.175 350.03153252667 327 349.721532020602 C 327.825 349.4115315145341 328.95 349.11741833740103 329.5 349.06794718252866 Z " class="even" fill="#ffffff"></path><path d="M 470.5 349 C 471.325 349 472.47252136699683 350.4625 473.0500474822152 352.25 C 473.6275735974336 354.0375 475.85463825598407 357.75 477.99908005677185 360.5 C 480.1435218575596 363.25 483.3282738890508 368.425 485.076306793419 372 C 486.82433969778714 375.575 489.65977503923665 380.31931525553375 491.37727421886234 382.54292279007507 C 493.76976356603615 385.6404249034937 495.1659872538631 389.3819583464864 497.34797562928793 398.54292279007507 C 498.9143622253963 405.11931525553376 501.2768622253963 413.9875 502.59797562928793 418.25 C 503.91908903317955 422.5125 505.68954431483064 431.0625 506.53232069962365 437.25 C 507.37509708441667 443.4375 508.34609701486414 454.575 508.69009832284024 462 C 509.09619363396683 470.7652506406291 508.8860154367496 478.3057773981457 508.0908257009817 483.5 C 507.41722445098344 487.9 506.1752009879907 495.1 505.33077356099784 499.5 C 504.486346134005 503.9 503.24612414621686 508.4 502.57472469924636 509.5 C 501.90332525227586 510.6 500.14934878482114 514.5375 498.67699921601366 518.25 C 497.20464964720617 521.9625 496 526.125 496 527.5 C 496 528.875 496.45 530.225 497 530.5 C 497.55 530.775 498.9 529.65 500 528 C 501.1 526.35 502.45 525 503 525 C 503.55 525 504.0050171440363 526.2375 504.0111492089695 527.75 C 504.01728127390277 529.2625 503.0991620391646 534.1 501.9708842428846 538.5 C 500.8426064466047 542.9 497.64205959702963 551 494.85855791049556 556.5 C 492.0750562239615 562 488.97178856341395 568.75 487.9624075537232 571.5 C 486.9530265440325 574.25 485.42355624957133 577.0625 484.5635846771428 577.75 C 483.2493558400042 578.8006537128678 482.8405229702942 578.6013074257355 482 576.5 C 481.45 575.125 481 569.725 481 564.5 L 481 555 L 479 556 C 477.8066326390942 556.5966836804529 476.705449329388 558.5124361983015 476.26967827400887 560.75 C 475.86800132471376 562.8125 475.5305013247137 567.0875 475.51967827400887 570.25 C 475.5081021287386 573.6325545509802 475.0882703566922 575.8616102225274 474.5 575.6638819193081 C 473.95 575.4790169749275 472.6 573.7915169749275 471.5 571.9138819193081 C 469.9105674213341 569.2008143481747 469.52660558856206 566.8577303146635 469.6296039928136 560.5 C 469.70088618886115 556.1 470.07654373908775 550.7 470.46439854887285 548.5 C 471.03281195354043 545.2758309070301 470.76522709926866 543.9666162514168 469.0847945560592 541.75 C 467.93815755022666 540.2375 466.55 539 466 539 C 465.45 539 465.1125 540.6384729438456 465.25 542.6410509863235 C 465.3875 544.6436290288013 465.05 546.4540660647067 464.5 546.6642443994465 C 463.95 546.8744227341863 462.7125 545.4609497903407 461.75 543.523193413123 C 460.7875 541.5854370359053 460 539.1 460 538 C 460 536.5915706025247 459.1865904215286 535.8697868108711 457.25 535.5597712645858 C 455.7375 535.317645460108 450.9 534.8470859850726 446.5 534.5140835422849 C 442.1 534.1810810994972 434.9 533.4206041463927 430.5 532.8241347576084 C 426.1 532.2276653688239 421.375 531.1775266616977 420 530.4904931862169 C 418.625 529.8034597107361 416.825 528.4532752502084 416 527.4900832739332 C 415.175 526.526891297658 413.4875 525.3475894798196 412.25 524.8694125676255 C 410.5172427493642 524.1998654874712 410.11494283319206 523.4252858340398 410.5 521.5 C 410.775 520.125 410.6625 519.0125487434747 410.25 519.0278860966105 C 409.8375 519.0432234497463 407.925 520.2366855148999 406 521.6800240191742 C 404.075 523.1233625234486 401.4875 525.3608137799739 400.25 526.6521379225637 C 399.0125 527.9434620651537 397.2125 529.0087280121733 396.25 529.0193955826073 C 395.2875 529.0300631530414 391.35 527.023899679741 387.5 524.5612545308287 C 383.32775293908503 521.8924846646921 377.87422941370676 519.4270540982934 374 518.4581704437246 L 367.5 516.8326229910066 L 361 519.2791350832513 C 356.3627848386304 521.0245201550406 353.855189863551 521.4783772220082 352.25 520.8628235877479 C 351.0125 520.3882706144866 349.3215205873055 518.9875 348.49226797178994 517.75 L 346.9845359435799 515.5 L 346.99226797178994 518.25 C 346.9974245201272 520.0839958859767 347.9160041140233 521.6782747103298 349.75 523.0362959345395 C 351.2625 524.1562586985361 353.85 525.3289354526875 355.5 525.6422442770979 C 357.61872948968977 526.0445573956789 359.9687841838504 525.4458366313604 363.5 523.6040933666322 C 366.25 522.1698015414655 369.175 520.9881011528472 370 520.9780925030359 C 370.825 520.9680838532246 374.2 522.2930285696581 377.5 523.9224140951102 C 380.8 525.5517996205623 385.3 528.7032509446533 387.5 530.9256392597567 C 389.7 533.1480275748603 392.2875 534.9739175975938 393.25 534.9831726436089 C 394.3416663061448 534.9936697053196 395.22360920120167 536.0345243760581 395.59440388021363 537.75 C 395.92132601433116 539.2625 395.7302817309855 540.95 395.1698610283345 541.5 C 394.48463761567837 542.1724820749449 393.63492384007594 541.435566743571 392.57545714812085 539.25 C 391.7089557166544 537.4625 390.55 536 390 536 C 389.45 536 388.32658525439706 537.0125 387.50352278754906 538.25 L 386.00704557509806 540.5 L 381.25352278754906 539.6627919935728 C 378.63908525439706 539.2023275900378 370.2 538.7230164636186 362.5 538.5976561570857 C 351.1940168179092 538.413588427558 347.44163625010714 538.7201183719276 343 540.1906006378501 C 339.975 541.1920804088035 336.4875 542.0088915352227 335.25 542.0057364743373 C 334.0125 542.0025814134517 331.5375 543.322445944326 329.75 544.9387687651688 C 327.5920158357687 546.8900969059603 325.8279902549116 547.6972263142011 324.5 547.3409047881655 C 323.02498156337714 546.945133193966 321.5111270767696 547.9455462599926 318.732732757817 551.1521360229967 C 316.6607357746164 553.5434612103485 314.1857357746164 557.6948657020985 313.232732757817 560.3774793379966 C 312.27972974101766 563.0600929738948 310.5586690991089 565.9850929738948 309.4081535535753 566.8774793379966 C 308.25763800804174 567.7698657020985 306.155587232258 570.75 304.73692960738913 573.5 L 302.1575521076277 578.5 L 299.82877605381384 573.1945305650735 C 298.5479492242162 570.2765223758639 297.14999999999884 568.2515223758639 296.7222222222196 568.6945305650735 C 296.2944444444404 569.137538754283 295.9645869007934 571.075 295.9892054585596 573 C 296.0138240163258 574.925 295.4190706477531 577.4 294.66753130617565 578.5 C 293.9159919645983 579.6 293.0682662978977 580.05 292.7836964912854 579.5 C 292.4991266846731 578.95 291.53138005324706 576.1375 290.63314842144973 573.25 C 289.7349167896524 570.3625 288.55 568 288 568 C 287.41978661069425 568 287.07954978300603 570.623666316839 287.18950052474145 574.25 C 287.2937258133493 577.6875 287.06872581334926 581.0625 286.68950052474145 581.75 L 286 583 L 284.37700403069624 581.75 C 283.48435624757917 581.0625 281.96470443376586 578.925 281 577 C 280.03529556623414 575.075 278.4488942603362 572.825 277.4746637646713 572 C 276.5004332690064 571.175 274.5760453967629 568.7 273.19824627079686 566.5 C 271.82044714483084 564.3 269.8404240871672 560.025 268.7981950315444 557 C 267.75596597592164 553.975 266.34714123264206 546.55 265.6674733798121 540.5 C 264.6286646209424 531.2531407216139 264.0298881802572 529.0218707122871 261.91047842422563 526.5 C 260.523799051483 524.85 258.6468809450695 521.025 257.73954929886213 518 C 256.83221765265483 514.975 254.99266329259376 508 253.65165072094865 502.5 C 252.31063814930354 497 250.91528686035127 488.9 250.5508700788325 484.5 C 250.1825114427076 480.0524057037257 250.3704239044081 473.16961965275715 250.97404800922135 469 C 251.57121265245397 464.875 252.4864463182755 456.55 253.00790059993585 450.5 C 253.85194594778454 440.70724436622686 254.39057425994375 438.62200409728956 257.91569855659066 431.5 C 260.0935331510904 427.1 262.2782231448038 422.15 262.77056520928704 420.5 C 263.2629072737702 418.85 264.4159427644238 417.3875 265.3328662996282 417.25 C 266.2497898348327 417.1125 266.9808981790195 417.5625 266.9575515089322 418.25 C 266.93420483884495 418.9375 267.7928031959026 420.625 268.86554785794925 422 L 270.81599269803405 424.5 L 275.157996349017 421.23098616969975 C 277.54609835705764 419.4330285630346 281.75 416.6247513907703 284.5 414.9903702313346 C 288.48060369120543 412.6246161673033 290.6723057551137 412.0168549077114 295.25 412.00938406163493 C 298.4125 412.0042228277357 302.9125 412.65779374930634 305.25 413.4617638873474 C 307.5875 414.2657340253885 312.65 415.3665306390787 316.5 415.9079785844367 C 320.35 416.4494265297947 324.7375 417.3666327804884 326.25 417.9462146970893 C 327.7625 418.5257966136902 334.175 419 340.5 419 C 350.6666666666667 419 352.231884057971 418.768115942029 354 417 C 355.1 415.9 356 414.1 356 413 C 356 411.8888888888889 354.6666666666667 410.1111111111111 353 409 C 351.35 407.9 350.00048530554415 406.4375 350.00107845676484 405.75 C 350.0016716079855 405.0625 352.36417160798544 402.75119131161836 355.25107845676484 400.61375847026306 C 358.1379853055442 398.4763256289078 361.0625 396.56382562890775 361.75 396.36375847026306 C 362.4375 396.1636913116184 362.9858732776062 396.7875 362.9686072835693 397.75 C 362.9489099049781 398.8480385405868 364.189984586065 397.8235276757946 366.2999095569534 395 C 368.14939180135156 392.525 372.1010185237453 388.54066536209154 375.0813022733841 386.14592302687004 L 380.5 381.79184605374013 L 385 382.34192522419426 C 387.475 382.644468767944 392.2 382.2767047945956 395.5 381.5246719500868 C 398.8 380.772639105578 404.9875 378.5469381167821 409.25 376.5786697527626 C 413.5125 374.6104013887432 416.7012152786964 373.5625 416.33603395265857 374.25 C 415.9708526266208 374.9375 414.8458526266208 376.7375 413.83603395265857 378.25 C 412.8262152786964 379.7625 412 381.45 412 382 C 412 382.55 412.675 383 413.5 383 C 414.325 383 417.7 381.65 421 380 L 427 377 L 427.5485345865234 378.75 C 428.01182397899726 380.2280406864913 428.82770191952335 380.3926779364479 432.7985345865234 379.8094054813088 C 435.38434056393555 379.4295784960286 442.18563772525783 376.72957849602864 447.9125282783508 373.8094054813088 C 453.6394188314438 370.88923246658896 458.81441883144373 367.71100753181275 459.4125282783508 366.7466834040283 C 460.0106377252579 365.7823592762438 460.8375 364.99485927624386 461.25 364.9966834040283 C 461.6625 364.9985075318127 462.675 366.35 463.5 368 C 464.325 369.65 465.3375 373.4807806786662 465.75 376.51284595259153 C 466.22779087386357 380.02482926614346 466.13705449848476 382.0171008967905 465.5 382.00202166169834 C 464.95 381.9890030277818 462.25 381.3059121282857 459.5 380.48404188504037 C 455.0124898593215 379.1428960483549 454.34625304220356 379.1496795045519 453 380.55022325500954 C 451.6584733752154 381.94584998454263 451.8590761806846 382.395400263938 454.8987682176569 384.805357079076 C 456.90087953682956 386.39268953236984 458.0309379064701 388.0136628952912 457.6487682176569 388.75 C 457.2919456979456 389.4375 454.1875 390.4268570045292 450.75 390.948571121176 C 447.3125 391.47028523782274 439.1 392.20226265632886 432.5 392.5751876067451 C 425.9 392.9481125571613 419.9174635920186 393.7587555526321 419.20547464893014 394.3766164855691 C 418.4934857058417 394.9944774185061 417.9309857058417 396.5125 417.95547464893014 397.75 C 417.9799635920186 398.9875 418.45 400.9 419 402 C 419.55 403.1 421.9125 404.87381262267206 424.25 405.9418058281601 C 426.5875 407.00979903364816 431.425 408.2003891702531 435 408.58756168728223 C 440.464503088269 409.17936739777133 443.0930721718938 408.8477532952683 451.5 406.5059604368582 C 457 404.9739072320958 463.525 402.63113309350115 466 401.29979568442553 C 469.68322958665675 399.31853453899913 471.31677041334325 399.0012060031928 475 399.55147279245955 C 477.475 399.92123261095384 481.075 400.8836721470577 483 401.6902273171349 C 484.925 402.49678248721204 488.075 404.52172438764956 490 406.19009820699614 L 493.5 409.22350515126254 L 494.38155386922983 407.3617525756313 C 494.91983948444425 406.22494782037995 494.82896894350785 404.13713502828404 494.1481874683918 402 C 493.5349813198545 400.075 493.02578207870107 397.0375 493.016633599162 395.25 C 493.00594450465326 393.16148284775545 492.19589649001546 391.27640413690176 490.75 389.97527224821806 C 489.5125 388.86167198473794 486.5089005199131 387.17417198473794 484.0753344886958 386.22527224821806 C 481.64176845747846 385.2763725116981 477.36676845747843 383.375 474.5753344886958 382 L 469.5 379.5 L 468.6432814202864 370.5 C 468.17208620144396 365.55 467.7482386183275 359.475 467.7013979022498 357 C 467.6545571861721 354.525 467.9275805470432 351.7125 468.30811648196334 350.75 C 468.68865241688354 349.7875 469.675 349 470.5 349 Z " class="even" fill="#ffffff"></path><path d="M 449.57676079375926 357.25 C 450.90954235719164 358.7625 452 361.125 452 362.5 C 452 364.15330805964436 450.8993004775377 365.8264130618931 448.75 367.44012320923366 C 446.9625 368.78219097431213 442.4625 371.25719097431215 438.75 372.94012320923366 C 435.0375 374.6230554441551 431.2125 376.01097138804397 430.25 376.02438086231984 C 429.1502172190425 376.0397029494995 431.5372251344806 373.1601695508828 436.6744128418628 368.27438086231984 C 441.1703399048874 363.9984713880439 445.36738226207905 359.15 446.0011736356221 357.5 L 447.1535215875185 354.5 L 449.57676079375926 357.25 Z " class="even" fill="#ffffff"></path><path d="M 370.5 358 C 370.775 358 371 358.45 371 359 C 371 359.55 370.55 360 370 360 C 369.45 360 369.225 359.55 369.5 359 C 369.775 358.45 370.225 358 370.5 358 Z " class="even" fill="#ffffff"></path><path d="M 390.75 367.05883492597377 C 394.7375 367.0264757166882 398.9 367.45 400 368 C 401.1 368.55 402.011571388242 369.5625 402.02571419609325 370.25 C 402.0398570039445 370.9375 401.02735700394453 372.4523464171709 399.77571419609325 373.6163253714908 C 398.52407138824196 374.78030432581073 395.475 376.51572002374246 393 377.4728047002279 C 389.9001172737229 378.67153207647914 387.0998827262771 379.0285983158834 384 378.6204214802472 C 381.525 378.2945260327724 378.69783236900423 377.2341103348407 377.7174052644539 376.26394215151015 C 376.7369781599036 375.29377396817955 375.94947815990355 373.9375 375.9674052644539 373.25 C 375.98533236900425 372.5625 377.6875 370.9014757166882 379.75 369.55883492597377 C 382.81898068050305 367.56099800594575 384.81663735102745 367.10698512628113 390.75 367.05883492597377 Z " class="even" fill="#ffffff"></path><path d="M 476.52311998941656 415.25 C 474.39145777660184 414.193935374776 474 414.23272244973117 474 415.5 C 474 416.325 475.125 417.675 476.5 418.5 C 477.875 419.325 479.22978902819926 419.8875 479.51064228488724 419.75 C 479.7914955415752 419.6125 479.8018995368127 418.825 479.5337622743038 418 C 479.2656250117949 417.175 477.9108359835957 415.9375 476.52311998941656 415.25 Z " class="odd" fill="#000000"></path><path d="M 464 416.39303159125075 C 461.525 416.29705550457277 457.925 416.3874046176764 456 416.59380739814765 C 454.075 416.8002101786189 449.35 417.48035259565194 445.5 418.10523499155437 C 441.65 418.7301173874568 435.6875 420.5370732217717 432.25 422.12069240114306 C 428.8125 423.70431158051434 425.9925 425.5625 425.98333333333335 426.25 C 425.97416666666663 426.9375 426.53666666666663 428.07 427.23333333333335 428.76666666666665 C 428.25555555555553 429.78888888888883 428.0175438596491 430.0219251449986 426 429.97421817559876 C 424.625 429.94170483884477 422.375 430.82506306169637 421 431.93723644860233 C 418.87695315310947 433.6544700502505 418.7261718918657 434.11090539154816 420 434.9643721651531 C 420.825 435.51712342235015 424.65 435.964159838984 428.5 435.9577864243396 L 435.5 435.9461983977133 L 432.24098514586166 433.22309919885663 C 430.4485269760856 431.7253946394855 428.9755440108856 430.275 428.96768966763955 430 C 428.95983532439345 429.725 430.7638920087557 428.9375 432.97670452177783 428.25 C 435.1895170348 427.5625 437.45 427.225 438 427.5 C 438.55 427.775 439.7875 430.02980873940214 440.75 432.5106860875604 L 442.5 437.02137217512075 L 447 437.94399648165034 C 450.14843514592525 438.5895126579087 452.23421765250106 438.5112161792659 453.9445585620948 437.68331039409 C 455.43265788176205 436.9629826344263 457.6824058441286 433.8589915224393 459.6945585620948 429.75 C 462.2977602501219 424.43403487876685 463.47801162625564 422.9926523448101 465.25 422.96541459816206 C 466.4875 422.9463926271512 468.7375 423.8463926271512 470.25 424.96541459816206 C 471.7625 426.08443656917296 473.011571388242 427.7875 473.02571419609325 428.75 C 473.0398570039445 429.7125 472.02735700394453 431.4722627134177 470.77571419609325 432.6605838075949 C 469.52407138824196 433.8489049017721 466.5875 435.3114049017721 464.25 435.9105838075949 C 461.9125 436.5097627134177 460 437.45 460 438 C 460 438.55 460.7875 438.9956039879332 461.75 438.990231084296 C 462.7125 438.9848581806588 465.8625 437.8598581806588 468.75 436.490231084296 C 471.6375 435.1206039879332 474.225 433.55 474.5 433 C 474.775 432.45 477.475 432 480.5 432 C 483.525 432 486 431.775 486 431.5 C 486 431.225 485.162505657912 429.7625 484.13890146202664 428.25 C 483.1152972661412 426.7375 479.1777972661412 423.4901950525815 475.38890146202664 421.03376678351447 C 470.0996577383489 417.60462846022835 467.4550641909672 416.5270128196428 464 416.39303159125075 Z " class="odd" fill="#000000"></path><path d="M 308 425.01234197031704 C 306.075 425.01629969391706 302.025 426.16815861138804 299 427.57202845358586 C 295.7631574751912 429.0742121245024 293.39712920567314 429.6874171459909 293.25 429.06225953788186 C 293.1125 428.47801679204684 292.325 428 291.5 428 C 290.675 428 288.8193996847993 429.9125 287.37644374399844 432.25 C 285.9334878031976 434.5875 283.7959878031976 437.53671393341403 282.62644374399844 438.8038087409201 C 280.7982648650713 440.7844745794239 280.71039695918114 441.23818681685293 282 442.03849596640305 C 282.825 442.5504791329126 285.6375 442.9762651994985 288.25 442.98468722548296 C 291.4667811123945 442.9950572978713 293.40347865463303 442.4759825315884 294.25 441.37656384546483 C 294.9375 440.48367396047047 296.9625 438.23367396047047 298.75 436.37656384546483 C 300.5375 434.51945373045913 302.675 433 303.5 433 C 304.325 433 305.95078300171537 434.9125 307.11285111492305 437.25 C 308.2749192281307 439.5875 310.1874192281307 442.5248264469084 311.36285111492305 443.7773921042409 C 312.5382830017154 445.0299577615734 314.85 446.30770881893386 316.5 446.61683889837525 C 318.2378299376481 446.9424240539394 321.0777125779399 446.5101762018495 323.25 445.58944679413435 C 326.3225167270482 444.28715296433944 327.1806622061205 443.2773511755181 328 440 C 328.57142857142856 437.7142857142857 329.85714285714283 435.57142857142856 331 435 C 332.1 434.45 333.675 434 334.5 434 C 335.325 434 336.9 434.9 338 436 C 339.1 437.1 340.0095564747171 438.3375 340.02123661048245 438.75 C 340.03291674624785 439.1625 338.34541674624785 440.3827662238056 336.27123661048245 441.461702719568 L 332.5 443.423405439136 L 335 443.7454253945218 C 336.375 443.9225363699841 341.2852070829844 443.48977014617844 345.91157129552096 442.7837226749539 C 350.53793550805744 442.07767520372926 354.49679592474183 441.05 354.7090388881529 440.5 C 354.921281851564 439.95 352.7110747685796 438.3306288164317 349.79746759263196 436.90139736984827 C 346.8838604166844 435.47216592326475 343.7125 433.1096659232648 342.75 431.65139736984827 C 341.7875 430.1931288164317 339.5375 428.58123402445494 337.75 428.06940894323327 C 335.9625 427.55758386201154 329.325 426.6587417365874 323 426.0719819978463 C 316.675 425.4852222591052 309.925 425.00838424671707 308 425.01234197031704 Z " class="odd" fill="#000000"></path><path d="M 519 456.5 C 519.55 456.775 520 459.925 520 463.5 C 520 467.1666666666667 519.5641025641025 470 519 470 C 518.4285714285714 470 518 467 518 463 C 518 458.6666666666667 518.3809523809524 456.1904761904762 519 456.5 Z " class="even" fill="#ffffff"></path><path d="M 421 517.3179981110808 C 418.0871378097358 516.9216243929842 416.23547703171073 517.1102566257315 415.75 517.8528256743559 C 415.3079476457479 518.5289738228739 415.82119372199446 519.4105968609972 417 520 C 418.1 520.55 420.35 521 422 521 C 423.65 521 425.225 520.55 425.5 520 C 425.775 519.45 425.8875 518.7593275965262 425.75 518.4651724367247 C 425.6125 518.1710172769234 423.475 517.6547888303836 421 517.3179981110808 Z " class="odd" fill="#000000"></path><path d="M 405.2957350932261 530.2435334855841 C 407.60808079195175 530.6524769026552 410.0825364079815 531.5524769026553 410.79452535106986 532.2435334855841 C 411.5065142941583 532.9345900685128 412.0792220971408 533.95 412.0672093576976 534.5 C 412.05519661825446 535.05 410.347660210273 536.486854801548 408.27268400662774 537.6930106701068 C 406.1977078029825 538.8991665386656 403.97185897899243 539.5741665386655 403.3263532866499 539.1930106701068 C 402.68084759430735 538.8118548015481 401.6500272777685 537.15 401.0356414721192 535.5 C 400.42125566646985 533.85 400.18247747942917 531.825 400.5050232786954 531 C 400.9652958933266 529.8227256162239 401.99601950832374 529.6599715348788 405.2957350932261 530.2435334855841 Z " class="even" fill="#ffffff"></path><path d="M 486.75 543.75 L 486.5 539.5 L 484.75 545.75 C 483.72333333333336 549.4166666666666 483.41333333333336 552 484 552 C 484.55 552 485.45 551.1 486 550 C 486.55 548.9 486.8875 546.0875 486.75 543.75 Z " class="odd" fill="#000000"></path><path d="M 419.5 547.4719822139405 C 424.45 547.7246539512441 431.0875 548.1718236638228 434.25 548.4656926863372 C 438.456974527261 548.8566174269126 440 549.4025283841928 440 550.5 C 440 551.325 437.8625 553.0108065238408 435.25 554.2462367196463 L 430.5 556.4924734392924 L 434 556.8436245138314 C 435.925 557.0367576048277 440.425 556.6186914018283 444 555.914588507166 C 449.77374007147654 554.7774396687449 450.80726381591376 554.8224244551784 453.25 556.3172007129808 L 456 558 L 457.43267941643535 556.25 C 458.60977982008217 554.8121865696185 459.1003587151969 554.7319821633573 460.18267941643535 555.800404390783 C 461.179114647843 556.7840440349363 461.5 561.6558323628574 461.5 575.800404390783 C 461.5 591.7556004878647 461.2798562410529 594.5 460 594.5 C 459.1678534173294 594.5 457.9963359228033 592.9416753595648 457.36876955902073 591 C 456.7465928164821 589.075 455.6215928164821 587.5 454.86876955902073 587.5 C 453.9440540448399 587.5 453.5 588.7670394246178 453.5 591.4055718884877 C 453.5 593.6796677398044 452.9778370224154 595.4550218635922 452.25 595.6555718884877 C 451.5625 595.8450073498194 449.7625 593.9796400448504 448.25 591.5103112107787 C 446.7375 589.040982376707 444.9375 586.790982376707 444.25 586.5103112107787 C 443.5625 586.2296400448504 442.73546750252245 586.5625 442.41215000560544 587.25 C 442.0888325086884 587.9375 443.1013325086884 591.3266750194858 444.66215000560544 594.7815000433018 C 446.22296750252247 598.2363250671177 448.0625 601.2738250671177 448.75 601.5315000433018 C 449.4375 601.7891750194858 450 603.125 450 604.5 C 450 605.875 449.55 607.225 449 607.5 C 448.45 607.775 447.1 606.875 446 605.5 C 444.9 604.125 443.6625 603.1927686169562 443.25 603.4283747043471 C 442.8375 603.663980791738 442.8327947134307 606.251480791738 443.2395438076237 609.1783747043471 C 443.80651784512173 613.2582187228137 443.6510401713192 614.7333462444642 442.5732477883349 615.5 C 441.80003588353304 616.05 439.9638252797979 618.75 438.4927797800346 621.5 C 437.0217342802713 624.25 435.0715674889513 627.2791322448744 434.15907579932343 628.2314049886098 C 433.2465841096955 629.1836777323452 432.275 629.7962332834769 432 629.5926395466802 C 431.725 629.3890458098833 431.1625 626.9224135650089 430.75 624.1112345580702 C 430.3375 621.3000555511317 429.4402254922295 617.9875 428.75605664939883 616.75 C 427.65627068195795 614.7607466907186 427.45346770028794 615.4076916602261 427.00605664939883 622.3325298391326 C 426.5635878828448 629.1808734406562 426.1858657873565 630.4113306792937 424 632.1249783302005 C 422.625 633.202933588765 420.2625 634.0657951611553 418.75 634.042448491068 C 416.8296234363837 634.0128059138287 415.3212171884133 634.9065846357885 413.75 637.005107665817 C 412.16142766375356 639.1268102904211 411.284025575493 639.641254028896 410.76531277451704 638.755107665817 C 410.36123480050145 638.0647984496177 410.0168440519688 635.7 410 633.5 C 409.9831559480312 631.3 409.5704906854853 628.825 409.0829660832313 628 C 408.36936091460285 626.7924214257156 407.90802919102765 627.0848428514313 406.7165266758953 629.5 C 405.9025096041145 631.15 404.95375490955513 634.3 404.6081829102078 636.5 C 404.26261091086053 638.7 403.372808936986 641.4 402.6308451904867 642.5 L 401.2818201968516 644.5 L 399.9776519741552 641 C 399.26035945167223 639.075 398.1844499073806 635.7334457926804 397.58674187572944 633.5743239837343 C 396.9890338440782 631.4152021747882 395.9375 629.5027021747882 395.25 629.3243239837343 C 394.47091278447044 629.1221826482007 393.6268591294626 630.7894685809877 393.0095276587229 633.75 C 392.4647678710205 636.3625 391.4522678710205 638.8088935222281 390.7595276587229 639.1864300493958 C 390.0667874464253 639.5639665765633 388.4875 639.2264665765633 387.25 638.4364300493958 C 385.89971467983884 637.5743898675569 385 636.0003170224013 385 634.5 C 385 633.125 384.55 630.875 384 629.5 C 383.45 628.125 382.55 627.225 382 627.5 C 381.45 627.775 380.99310925146733 629.4625 380.98468722548296 631.25 C 380.9762651994985 633.0375 380.5171234223501 635.175 379.9643721651531 636 C 379.11090539154804 637.2738281081344 378.65447005025044 637.1230468468905 376.93723644860233 635 C 375.82506306169637 633.625 374.93420483884483 631.4875 374.95755150893217 630.25 C 374.98089817901945 629.0125 374.55 627.775 374 627.5 C 373.45 627.225 372.2125 627.6636248068497 371.25 628.4747217929995 C 370.2875 629.2858187791493 369.1625 629.9608187791492 368.75 629.9747217929995 C 368.3375 629.9886248068498 367.7453205452026 628.3125 367.43404565600576 626.25 C 367.1227707668089 624.1875 366.4980822963027 621.825 366.04584905488076 621 C 365.59358970014347 620.1749523620044 364.72333057764655 619.8374761810022 364.111803398875 620.25 C 363.50031152949373 620.6625 362.98862480684977 622.0125 362.9747217929995 623.25 C 362.96081877914924 624.4875 362.29967311132737 626.175 361.50550919783973 627 C 360.68217767087634 627.8553001442258 359.72599245815326 631.8346481194156 359.2807874048402 636.2586060153783 C 358.8513543321781 640.5258393238363 358.1625 644.0133393238362 357.75 644.0086060153783 C 357.3375 644.0038727069202 356.775 643.325 356.5 642.5 C 356.225 641.675 355.9799635920185 638.6375 355.95547464893014 635.75 C 355.9249179623241 632.1470502011417 356.4196276823335 630.0294142282452 357.5323701365412 629 C 358.58159669271623 628.0293452528075 359.0384305922014 626.2921398622575 358.82689548761107 624.0772996036053 C 358.64710296942496 622.1948143855882 357.9375 620.5073143855882 357.25 620.3272996036053 C 356.55756679879823 620.1459931137841 356 620.8921068780771 356 622 C 356 623.1 355.38856181305374 625.2375 354.6412484734528 626.75 C 353.8939351338518 628.2625 352.5439351338518 629.8375 351.6412484734528 630.25 C 350.73856181305376 630.6625 349.55 631 349 631 C 348.36656347241683 631 348.2749226043126 629.1614909309893 348.75 625.9844727929678 C 349.2255937543208 622.8040015739139 349.13412500576106 620.9778264538129 348.5 620.9932185425929 C 347.95 621.0065686687543 346.0375 619.6635559119187 344.25 618.008745749625 C 342.4625 616.3539355873313 341 614.55 341 614 C 341 613.45 341.9 612.775 343 612.5 C 344.2201173480516 612.1949706629871 346.9618152960377 613.2673093094162 350.0310525337022 615.25 C 352.79813142723845 617.0375 355.30240950850714 618.275 355.59611493652153 618 C 355.8898203645359 617.725 355.7959377701607 616.375 355.3874869490211 615 C 354.97903612788144 613.625 353.03725804661275 610.8046318771034 351.0724245462018 608.732515282452 C 347.9432577842015 605.4324909426715 347.37592242230204 605.1719395913439 346.5 606.6326084647843 C 345.82122921156065 607.7645116306701 345.0545572871094 608.0110501413728 344.11331816391635 607.4000931823323 C 343.145578666881 606.7719348688036 342.91536554901165 605.4425849906492 343.35132225368477 603 C 343.8200918110906 600.3735706488299 343.38032196884495 598.3768377372187 341.5893646490863 595 C 340.27671070733857 592.525 338.5946088669428 590.5 337.8513605593179 590.5 C 336.87437221448096 590.5 336.4307416122404 592.3699764695087 336.25 597.25 C 336.1125 600.9625 335.55 604 335 604 C 334.45 604 333.9755273692822 602.0875 333.94561637618267 599.75 C 333.9157053830832 597.4125 333.11464287448484 593.475 332.1654774681864 591 C 331.1547232918573 588.3644039597162 329.72716311065324 586.396422002238 328.7198610920037 586.25 C 327.28161068678736 586.0409350918072 326.9974926806773 586.8596369279517 326.98468722548296 591.25 C 326.9762651994985 594.1375 326.580714792169 597.175 326.10568632030606 598 C 325.4924970675374 599.0649490788422 324.7994019997547 597.6147793416495 323.7159830669325 593 L 322.1899679442186 586.5 L 324.0860897576108 580 C 325.4837560368193 575.2087303934328 326.8389148930486 572.7891725230752 329.24110578550153 570.7960166110649 C 331.03349760347567 569.3088257471505 335.2 567.0588257471505 338.5 565.7960166110649 C 343.79432658877727 563.7700396456923 346.26418352805683 563.5 359.5 563.5 C 367.75894576081976 563.5 378.3199307355355 564.1357603617996 383 564.9146756706937 C 390.0383357733539 566.0860830096037 392.78970372939364 566.112789067401 399 565.0699791166819 C 403.125 564.3773243930939 408.975 563.3689331906583 412 562.8291097779361 C 415.025 562.2892863652139 418.96883486736533 561.3193998145191 420.76407748303404 560.6738063319478 C 422.5593200987028 560.0282128493766 424.0218200987028 559.1625 424.01407748303404 558.75 C 424.00633486736535 558.3375 423.775 558 423.5 558 C 423.225 558 416.1375 559.145697194714 407.75 560.545993766031 L 392.5 563.091987532062 L 381.5 561.6009488495431 C 375.45 560.7808775741576 366.675 559.8295274537808 362 559.4868374709279 C 357.325 559.1441474880749 352.7125 558.4444177004945 351.75 557.9318823874157 C 350.3116917136141 557.1659771532688 350.2226369382958 556.7201263504321 351.25 555.4286432222893 C 351.9375 554.5643969945484 354.075 553.4627426520998 356 552.9805224612924 C 357.925 552.4983022704848 363.63336037074004 551.0679128204547 368.6852452683112 549.801879239003 L 377.8704905366224 547.5 L 383.1852452683112 549.4151517452696 C 386.10836037074006 550.4684852051678 390.75 551.2966063444304 393.5 551.2554209436307 C 396.25 551.2142355428311 401.2 550.2427475448814 404.5 549.0965587259643 C 409.4088147749311 547.3915803595521 412.1367778376034 547.0961280450664 419.5 547.4719822139405 Z " class="even" fill="#ffffff"></path><path d="M 321.25 557.5895777677345 C 321.6625 557.8153099954806 321.72020414889744 559.2375 321.3782314419942 560.75 C 321.03625873509105 562.2625 319.5127206352429 565.525 317.99259122010943 568 C 316.472461804976 570.475 314.67289656531057 574.3 313.99355735418635 576.5 C 313.3142181430622 578.7 312.3068803499726 580.95 311.7550289250984 581.5 C 311.084071321974 582.1687065849337 310.9238047419996 580.5122395096021 311.2712686911609 576.5 C 311.6961027675731 571.594351311782 312.5851115770796 569.285193032183 316.14543734213373 563.8395777677345 C 318.54044680396015 560.1763455399885 320.8375 557.3638455399885 321.25 557.5895777677345 Z " class="even" fill="#ffffff"></path><path d="M 301.72649630037205 585.5 C 301.91237382089196 587.15 301.8249529571573 588.725 301.532227714295 589 L 301 589.5 L 300.4171642492478 589 C 300.096604586334 588.725 300.18402545006865 587.15 300.61143283532476 585.5 L 301.38853717215403 582.5 L 301.72649630037205 585.5 Z " class="even" fill="#ffffff"></path><path d="M 429 583.067190940385 C 427.625 583.1531238437735 423.35 583.8148885331917 419.5 584.537779139092 C 415.65 585.2606697449922 404.175 586.3327881701401 394 586.9202645283095 C 379.8672776707254 587.7362488275745 372.8526949432506 587.694685836054 364.2858874011714 586.7442016806724 C 355.3951953778927 585.7577826608688 352.80535539381697 585.7555308784289 351.7858874011714 586.7333333333337 C 351.0746461509449 587.4155062367677 350.88995411137984 588.3092799068751 351.37260147489684 588.7333333333337 C 351.8525322860901 589.1550000000002 355.9025322860901 590.7833063106524 360.37260147489684 592.3517918014497 C 364.8426706637036 593.9202772922471 370.3 595.4083178569877 372.5 595.6585486119843 C 374.7 595.9087793669809 377.4 596.5817879602753 378.5 597.1541232637495 C 379.7832893337495 597.8218248912739 382.6501319987514 597.8960972183149 386.5 597.3613821494854 C 389.8 596.9030392331658 393.7375 596.6342243292191 395.25 596.7640156962705 C 396.7625 596.8938070633217 400.5875 596.3331424039111 403.75 595.5180942309137 C 406.9125 594.7030460579161 411.8625 594.0280460579161 414.75 594.0180942309137 C 419.4051385341453 594.0020502020428 420.3965743105698 593.6034256894302 423.5 590.5 C 425.9935638051329 588.0064361948671 427.6469946967003 587.1293269379244 429.25 587.4497496066257 C 430.4875 587.6971118902699 432.06804903267187 587.3596118902698 432.7623311837152 586.6997496066257 L 434.02466236743044 585.5 L 432.7623311837152 584.2054746489301 C 432.06804903267187 583.4934857058417 430.375 582.9812580369965 429 583.067190940385 Z " class="odd" fill="#000000"></path><path d="M 265 600.1313141249923 C 265.275 600.0759354082153 266.1122712245917 600.3612348005014 266.8606027213149 600.765312774517 C 267.75805390119 601.2499111859561 268.0133552104099 602.4361048004729 267.6106027213149 604.25 C 267.2747712245917 605.7625 266.1 607.9 265 609 C 263.9 610.1 262.55 611 262 611 C 261.45 611 260.7164549100395 610.2125 260.3698998000877 609.25 L 259.7397996001754 607.5 L 260.3698998000877 604.25 C 260.7461083977159 602.3095499851265 261.7051422996835 600.8452721766851 262.75 600.6160013504752 C 263.7125 600.4048020932366 264.725 600.1866928417693 265 600.1313141249923 Z " class="even" fill="#ffffff"></path><path d="M 251.75 606.2636598859208 C 252.77958204891806 606.4187795919572 254.07102341469073 608.1683660445848 254.8870989391755 610.5136598859208 C 255.8130519876372 613.1747272954532 256.352696113057 620.1517094208104 256.51031581907307 631.5 C 256.6656833751378 642.6861404729473 257.2796538422841 650.7229462897554 258.30559447913004 655 C 259.1631328747642 658.575 260.99671266684476 665.1 262.3802162393091 669.5 C 263.76371981177346 673.9 265.1865533987233 679.75 265.5420686547533 682.5 C 266.1195859501486 686.9672416595345 265.8006490122837 688.2458616766518 262.5488077929324 694.5 C 260.5469990629009 698.35 259.0420955562965 702.4 259.2045777782558 703.5 C 259.4483954448952 705.1506386364566 260.0240420453151 704.7613367816211 262.5 701.2713514116905 C 264.15 698.9455946881203 265.8375 697.0330946881203 266.25 697.0213514116905 C 266.6625 697.0096081352607 266.99011709977907 697.5625 266.97803799950907 698.25 C 266.96595889923907 698.9375 266.06595889923904 701.4125 264.97803799950907 703.75 C 263.8901170997791 706.0875 262.2125 708.2922030366694 261.25 708.6493400814877 C 260.2875 709.0064771263059 258.7125 708.7814771263058 257.75 708.1493400814877 C 256.4161184924749 707.2732923783141 255.63984839275315 707.297227494625 254.48537057573805 708.25 C 253.65232439239398 708.9375 252.752324392394 710.5125 252.48537057573805 711.75 C 252.057729924285 713.7323852410217 251.37556556238403 714.0025362815036 246.75 714.0213240607691 C 243.8625 714.0330522941921 238.575 713.1541493829009 235 712.0682064801221 C 231.07047572529146 710.8745731941312 227.42290454792453 708.9877158594073 225.77633279334052 707.296882419353 C 223.86356226508295 705.3326944856511 222.73037116883168 702.7136657303375 221.97013218857208 698.5 C 221.37473881961216 695.2 221.17889279624328 691.825 221.53491880330787 691 C 221.89094481037247 690.175 222.53024989303515 685.45 222.95559676478047 680.5 C 223.38094363652576 675.55 224.21243781786194 670.6 224.80336161219415 669.5 C 225.39428540652636 668.4 226.95628665830566 665.025 228.274475505037 662 C 229.59266435176838 658.975 231.19247688429198 654.25 231.8296144662006 651.5 C 232.46675204810924 648.75 234.09209146155277 645.15 235.44147982940848 643.5 C 236.7908681972642 641.85 238.36107263014716 638.925 238.93082301359289 637 C 239.50057339703864 635.075 239.9738087353464 631.7 239.98245709872128 629.5 C 239.99110546209616 627.3 240.4561621145757 623.925 241.0159163264536 622 C 241.5756705383315 620.075 243.0790136106019 616.925 244.3566787092767 615 C 245.63434380795152 613.075 247.42677227509486 610.2625 248.33985308070635 608.75 C 249.3103809724704 607.1423400565736 250.72694367236502 606.1095233632723 251.75 606.2636598859208 Z " class="even" fill="#ffffff"></path><path d="M 500.5 618 C 501.325 618 503.4625 619.2862195681236 505.25 620.8582657069412 C 507.0375 622.430311845759 509.9625 626.4803118457589 511.75 629.8582657069412 C 513.5375 633.2362195681236 516.2375 636.7347697079748 517.75 637.6328215732774 C 519.2625 638.5308734385799 521.7375 641.0058734385799 523.25 643.1328215732774 C 524.8964180631879 645.448091542487 527.1035819368121 647.2341691530993 528.75 647.5835227539906 C 530.2625 647.9044602686855 532.0625 648.3544602686854 532.75 648.5835227539906 C 533.4375 648.8125852392958 535.125 651.475 536.5 654.5 C 537.875 657.525 540.0125 660.5260408641495 541.25 661.16897969811 C 542.4875 661.8119185320704 543.725 662.3744185320704 544 662.41897969811 C 544.275 662.4635408641495 544.4755343634088 666.1 544.4456319186861 670.5 C 544.4034606539345 676.7052974807755 543.8987005704026 679.4534357133381 542.1956319186861 682.75 C 540.6483622527384 685.744990200458 539.1879348355905 687.175525339895 537.25 687.5944038802133 C 535.7375 687.9213260143308 534.2136814458197 687.8088260143307 533.863736546266 687.3444038802133 C 533.5137916467122 686.8799817460961 532.4386343374167 681.1 531.4744980811649 674.5 C 530.510361824913 667.9 528.8841803790933 660.1375 527.860761534899 657.25 C 526.8315497469572 654.346155640928 525.1062264225036 651.5531132112518 524 651 L 522 650 L 521.5 651 C 521.225 651.55 522.125 654.7 523.5 658 C 525.6976842846043 663.2744422830503 525.9860753299251 665.3604207192807 525.884849931994 675.25 C 525.8215173945907 681.4375 525.8748068682748 686.95 526.0032709846255 687.5 C 526.1317351009762 688.05 526.1835526315789 689.2875 526.1184210526316 690.25 C 526.0532894736842 691.2125 525.55 692 525 692 C 524.45 692 523.1 690.2 522 688 C 520.9 685.8 519.171414705232 683.4375 518.15869934496 682.75 C 517.145983984688 682.0625 515.8436673943488 680.6 515.2646624775397 679.5 C 514.6856575607305 678.4 511.88982190167155 670.525 509.05169434629755 662 C 505.42649713406956 651.1108466299462 504.21003785479826 646.2025260238744 504.9623978803845 645.5 C 505.55141237950636 644.95 506.0258333333333 642.8125 506.01666666666665 640.75 C 506.0075 638.6875 504.42032858390303 633.0625 502.4896190753401 628.25 C 500.5589095667772 623.4375 498.98390956677713 619.1625 498.9896190753401 618.75 C 498.9953285839031 618.3375 499.675 618 500.5 618 Z " class="even" fill="#ffffff"></path><path d="M 492.75 618.9780296920026 C 493.1625 618.9659460226039 495.10507216737227 621.7784460226039 497.0668270386051 625.2280296920026 C 499.02858190983784 628.6776133614011 501.20012393994244 633.975 501.89247599439307 637 C 502.58482804884363 640.025 502.8922558814714 642.6125 502.575648955788 642.75 C 502.2590420301046 642.8875 499.95297320558274 638.6125 497.4510515679616 633.25 C 494.9491299303405 627.8875 492.6991299303405 622.4875 492.4510515679616 621.25 C 492.20297320558274 620.0125 492.3375 618.9901133614011 492.75 618.9780296920026 Z " class="even" fill="#ffffff"></path><path d="M 233 621 C 233.55 621 234 621.45 234 622 C 234 622.55 233.5435289967951 624.2375 232.98561999287801 625.75 C 232.4277109889609 627.2625 231.7259352078376 628.275 231.42611825704844 628 C 231.12630130625928 627.725 231.1327723094642 626.0375 231.44049826417046 624.25 C 231.7482242188767 622.4625 232.45 621 233 621 Z " class="even" fill="#ffffff"></path><path d="M 519.5 628 C 519.775 628 522.25 629.575 525 631.5 C 527.75 633.425 530 635.45 530 636 C 530 636.55 529.55 637.225 529 637.5 C 528.45 637.775 526.8310047561577 636.9875 525.4022327914615 635.75 C 523.9734608267654 634.5125 521.9484608267653 632.2625 520.9022327914615 630.75 C 519.8560047561577 629.2375 519.225 628 519.5 628 Z " class="even" fill="#ffffff"></path><path d="M 547 638 C 548.1 638.55 549.225 640.125 549.5 641.5 C 549.775 642.875 550.2651869075213 645.2375 550.5893042389362 646.75 L 551.1786084778722 649.5 L 549.0402001619775 647.5 C 547.8640755882353 646.4 546.4763983011953 643.925 545.956472857444 642 C 545.4365474136928 640.075 545.0086442483242 638.1625 545.0055769344027 637.75 C 545.0025096204812 637.3375 545.9 637.45 547 638 Z " class="even" fill="#ffffff"></path><path d="M 223 638 C 223.55 638 224.02003640798145 638.7875 224.04452535106986 639.75 C 224.0690142941583 640.7125 223.38359592976786 642.175 222.5213734302022 643 C 221.65915093063654 643.825 220.6266145226551 644.157206615264 220.2268480791323 643.738236922809 C 219.82708163560955 643.3192672303541 220.0625 641.8567672303541 220.75 640.488236922809 C 221.4375 639.119706615264 222.45 638 223 638 Z " class="even" fill="#ffffff"></path><path d="M 426.75 638.8511904761905 C 426.8875 639.4830357142857 426.4375 640.6950364079814 425.75 641.5445253510699 C 425.0625 642.3940142941583 424.1625 643.0690142941583 423.75 643.0445253510699 C 423.3375 643.0200364079815 423 642.55 423 642 C 423 641.45 423.7875 640.2580357142857 424.75 639.3511904761905 C 425.87940212940214 638.287093912094 426.58865683865685 638.1097802347803 426.75 638.8511904761905 Z " class="even" fill="#ffffff"></path><path d="M 365.25 640.9674052644539 C 365.6625 640.9853323690043 366.9 641.9 368 643 L 370 645 L 366.75 645.6282604235955 L 363.5 646.256520847191 L 362.25 645.6282604235955 C 361.30693274359936 645.1542669564072 361.4297058410391 644.5009040969545 362.75 642.9674052644539 C 363.7125 641.8494781599035 364.8375 640.9494781599035 365.25 640.9674052644539 Z " class="even" fill="#ffffff"></path><path d="M 558.75 647.021571518676 C 559.4375 647.0097071834042 561.2375 647.4786282783472 562.75 648.063618396327 C 564.2625 648.6486085143068 566.7470641709053 650.3361085143068 568.2712537131229 651.813618396327 C 569.7954432553404 653.2911282783472 571.0329432553405 655.0625 571.0212537131229 655.75 C 571.0095641709053 656.4375 570.325 657 569.5 657 C 568.675 657 565.6375 654.7597071834042 562.75 652.021571518676 C 559.8625 649.2834358539477 558.0625 647.0334358539477 558.75 647.021571518676 Z " class="even" fill="#ffffff"></path><path d="M 224.25 651.0995692872721 C 224.6625 651.0448061792724 225.01114028505557 651.7875 225.0247561890124 652.75 C 225.03837209296924 653.7125 224.13837209296923 656.6375 223.0247561890124 659.25 C 221.91114028505558 661.8625 220.55 664 220 664 C 219.45 664 218.32152058730549 662.9875 217.49226797178994 661.75 C 216.6630153562744 660.5125 215.97494778209943 658.825 215.96322891806773 658 C 215.95151005403605 657.175 217.64248946673058 655.3073061792724 219.72096094627778 653.8495692872721 C 221.79943242582502 652.3918323952716 223.8375 651.1543323952716 224.25 651.0995692872721 Z " class="even" fill="#ffffff"></path><path d="M 578.8001136508284 655.25 C 579.240176158784 655.3875 584.077676158784 657.4252628806825 589.5501136508284 659.7783619570721 C 595.0225511428728 662.1314610334618 603.292819602988 665.9564610334618 607.92848800664 668.2783619570721 C 612.5641564102921 670.6002628806825 616.6720553298541 673.175 617.0571522723333 674 C 617.4422492148126 674.825 618.4902877746749 677.075 619.3861268498049 679 C 620.281965924935 680.925 622.1170495240319 684.3 623.4640904033536 686.5 C 624.8111312826752 688.7 625.932773119825 690.8375 625.9566278192419 691.25 C 625.9804825186588 691.6625 625.4375 691.9857840298829 624.75 691.9684089552952 C 624.0625 691.9510338807075 621.5189074916807 690.2635338807075 619.0975722037349 688.2184089552952 C 616.676236915789 686.1732840298829 614.313736915789 683.4875 613.8475722037349 682.25 C 613.3814074916806 681.0125 612.55 680 612 680 C 611.45 680 610.55 681.35 610 683 C 609.45 684.65 608.55 686 608 686 C 607.45 686 605.4209970767172 684.0875 603.4911046149272 681.75 C 601.111938944424 678.868336972184 600.3124008704812 677.1780383594861 601.0077712815938 676.5 C 601.5718304100506 675.95 602.0258333333334 674.4875 602.0166666666667 673.25 C 602.0069281746141 671.9353035729027 601.0646964270973 670.5220789959624 599.75 669.8502959998887 C 598.5125 669.2179587998273 597.1875300513766 668.2054587998273 596.8056223363926 667.6002959998887 C 596.4237146214085 666.9951331999499 595.8612146214085 666.8375 595.5556223363926 667.25 C 595.2500300513766 667.6625 595.3877503914434 668.7875 595.8616675365408 669.75 C 596.3355846816382 670.7125 597.0105846816383 672.7375 597.3616675365408 674.25 C 597.8401803749639 676.3114810948707 597.6244442335659 677 596.5 677 C 595.675 677 594.1 675.65 593 674 C 591.9 672.35 591 669.875 591 668.5 C 591 666.4502500777393 590.3246248833912 665.8252747504525 587.25 665.0298433127166 C 585.1875 664.4962571347108 581.9636370815726 662.8087571347108 580.0858601812724 661.2798433127166 C 577.6522914945507 659.298395569214 576.8624671885208 657.9973845325264 577.3358601812724 656.75 C 577.7011370815726 655.7875 578.3600511428727 655.1125 578.8001136508284 655.25 Z " class="even" fill="#ffffff"></path><path d="M 208.5496031746032 661 C 208.88244047619048 661.275 208.93046679197994 662.175 208.656328320802 663 C 208.30916288864293 664.0447693835183 208.12550503410998 663.8930258446911 208.05116959064327 662.5 C 207.99247076023394 661.4 208.21676587301587 660.725 208.5496031746032 661 Z " class="even" fill="#ffffff"></path><path d="M 212 671 C 212.55 671 213 671.45 213 672 C 213 672.55 212.55 673 212 673 C 211.45 673 211 672.55 211 672 C 211 671.45 211.45 671 212 671 Z " class="even" fill="#ffffff"></path><path d="M 570.5 676 C 570.775 676 571.225 676.45 571.5 677 C 571.775 677.55 571.55 678 571 678 C 570.45 678 570 677.55 570 677 C 570 676.45 570.225 676 570.5 676 Z " class="even" fill="#ffffff"></path><path d="M 204 682 C 204.55 682 205.225 682.45 205.5 683 C 205.775 683.55 205.55 684.225 205 684.5 L 204 685 L 203 684.5 C 202.45 684.225 202.225 683.55 202.5 683 C 202.775 682.45 203.45 682 204 682 Z " class="even" fill="#ffffff"></path><path d="M 645 689.5 C 644.45 689.225 644 689.45 644 690 C 644 690.55 644.45 691.225 645 691.5 C 645.55 691.775 646 691.55 646 691 C 646 690.45 645.55 689.775 645 689.5 Z " class="odd" fill="#000000"></path><path d="M 617.95 692 C 618.6925 692.275 619.5475 693.175 619.8499999999999 694 C 620.2256097560976 695.0243902439024 619.940243902439 695.3097560975609 618.95 694.9 C 618.1525 694.5699999999999 617.2975 693.67 617.05 692.9 C 616.7743243243243 692.0423423423424 617.122972972973 691.6936936936937 617.95 692 Z " class="even" fill="#ffffff"></path><path d="M 655.25 692.9722222222222 C 654.8375 692.9569444444445 654.171875 693.2944444444445 653.7708333333333 693.7222222222222 C 653.3697916666666 694.15 653.3008548518008 695.85 653.617640411409 697.5 C 653.9344259710173 699.15 654.8250509710174 701.9625 655.5968070780757 703.75 C 656.368563185134 705.5375 656.8875 708.9621816049671 656.75 711.3604035665935 C 656.5277979929522 715.2359652627356 656.8799724915591 716.0421070583488 659.9172655217656 718.6104035665935 C 661.7967615587366 720.199681604967 663.9342615587366 722.9625 664.6672655217656 724.75 C 665.4002694847945 726.5375 665.9908519300157 729.2375 665.9796709555902 730.75 C 665.9639525842407 732.8762938060402 666.9845627198113 734.2371073201343 670.4796709555902 736.75 L 675 740 L 674.5220790630106 744.25 C 674.2286073770725 746.8597510460489 673.1273605897771 749.4648523258536 671.668671453921 751 C 670.3621537842658 752.375 669.002218205911 754.2875 668.6465923909104 755.25 C 668.0726043242037 756.8034966554779 668.7298695653675 757 674.5 757 L 681 757 L 680.482354830585 754.75 C 680.1976499874067 753.5125 679.6351499874067 749.6999676175201 679.232354830585 746.2777058167112 C 678.5919049376555 740.8362620287596 678.7341166081844 739.8950693122922 680.3655845191552 738.7777058167112 C 681.7525035990859 737.827829487046 682.0877528894528 736.7302700290827 681.6722088018267 734.5 C 681.3647806717609 732.85 679.9168644224388 727.9 678.4546171366667 723.5 C 676.9923698508946 719.1 675.3918889236924 714.4875 674.8979928539951 713.25 C 674.3500538850858 711.8770907674142 673.4152728217239 711.1949090594254 672.5 711.5 C 671.675 711.775 670.9962210138666 712.7875 670.991602253037 713.75 C 670.9869834922074 714.7125 671.7744834922073 718.5096635322642 672.741602253037 722.1881411828093 C 673.7087210138667 725.8666188333544 674.1256930697242 729.2416188333544 673.6682068216094 729.6881411828093 C 673.2107205734944 730.1346635322642 672.1954717346355 729.6 671.4120982908116 728.5 C 670.6287248469879 727.4 669.5228182101276 724.025 668.9545279866779 721 C 668.3862377632282 717.975 667.7139866020872 714.4875 667.4606365174756 713.25 C 667.207286432864 712.0125 666.2125 710.7686019190484 665.25 710.4857820423298 C 664.2875 710.2029621656112 662.3054377093392 708.2904621656112 660.8454171318649 706.2357820423298 C 659.3853965543906 704.1811019190484 657.8810712771749 701.15 657.5024720713855 699.5 C 657.1238728655961 697.85 656.6309351562569 695.7125 656.4070549395205 694.75 C 656.1831747227843 693.7875 655.6625 692.9875 655.25 692.9722222222222 Z " class="odd" fill="#000000"></path><path d="M 579 699.4690476190476 C 580.1499732934825 700.6317983935688 580.2277406637718 701.2790700016527 579.3332633003763 702.2428571428571 C 578.4076889498274 703.240150862959 577.9482799839487 703.0866036456167 577.1106555729135 701.5 C 576.529926507602 700.4 576.3799580224327 699.1517857142857 576.7773922725372 698.7261904761905 C 577.1748265226418 698.3005952380953 578.175 698.634880952381 579 699.4690476190476 Z " class="even" fill="#ffffff"></path><path d="M 473.75 699.9628570218238 C 473.6125 699.9424283838268 470.6427044481366 701.8549283838269 467.1504543291925 704.2128570218238 C 463.6582042102483 706.5707856598207 459.3832042102483 709.3442788471795 457.6504543291925 710.3761752159544 C 455.9177044481366 711.4080715847294 449.55 714.8610214863661 443.5 718.0493972195916 C 437.45 721.237772952817 427.1 725.750862823913 420.5 728.0784858220272 C 413.9 730.4061088201415 406.25 733.3139694802393 403.5 734.5403984000222 C 400.4148667524938 735.9162880858862 399.0744600257481 736.957364052557 400 737.2588015612735 C 400.825 737.5274943801786 404.875 736.8783092495779 409 735.8161679377165 C 413.125 734.7540266258551 420.55 732.5228868604685 425.5 730.8580795701907 C 430.45 729.1932722799129 439.9 724.8837614239625 446.5 721.2813887791897 C 453.1 717.6790161344169 460.7068494433244 713.1045057589649 463.40410987405426 711.1158101670742 C 466.10137030478415 709.1271145751833 469.58887030478417 705.8125 471.15410987405426 703.75 C 472.7193494433244 701.6875 473.8875 699.9832856598207 473.75 699.9628570218238 Z " class="odd" fill="#000000"></path><path d="M 531 704 C 531.55 704 532.2578490607032 704.7875 532.5729979126738 705.75 C 532.8881467646444 706.7125 533.5631467646443 708.2875 534.0729979126738 709.25 C 534.5828490607032 710.2125 535.0200364079815 712.0125 535.0445253510699 713.25 C 535.0690142941583 714.4875 534.3940142941583 716.0625 533.5445253510699 716.75 C 532.6950364079814 717.4375 531.8340610102931 717.6625 531.6312466895401 717.25 C 531.4284323687872 716.8375 530.9784323687873 713.6875 530.6312466895401 710.25 C 530.2352448225384 706.3291688736399 530.3726670197824 704 531 704 Z " class="even" fill="#ffffff"></path><path d="M 560.667584741024 705.5 C 561.4190946934337 706.6 562.0263240163255 708.7375 562.016983236339 710.25 C 562.0076424563525 711.7625 561.4787067793425 714.0125 560.8415706207611 715.25 L 559.6831412415221 717.5 L 558.9118558833713 715.5 C 558.4876489363885 714.4 558.108942157046 712.0375 558.0702852626104 710.25 C 558.0316283681747 708.4625 558.2927706771083 706.2125 558.650601504685 705.25 L 559.30120300937 703.5 L 560.667584741024 705.5 Z " class="even" fill="#ffffff"></path><path d="M 570 704 C 570.55 704 571.225 704.675 571.5 705.5 C 571.775 706.325 572.0076424563525 707.5625 572.016983236339 708.25 C 572.0263240163255 708.9375 571.3656355336672 710.4 570.5487866082094 711.5 L 569.0636067437409 713.5 L 569.0318033718704 708.75 C 569.0143115173418 706.1375 569.45 704 570 704 Z " class="even" fill="#ffffff"></path><path d="M 587.5 707.9504220281149 C 588.05 707.941835703551 589.2296754300767 708.7369781599035 590.1215009557259 709.7174052644539 C 591.013326481375 710.6978323690042 592.188476124868 712.4 592.7329446079325 713.5 C 593.277413090997 714.6 593.9894406569241 717.525 594.3152280877706 720 C 594.6410155186171 722.475 594.5908658751241 725.1029938955642 594.2037844355639 725.8399864345871 C 593.6203573733568 726.9508157019352 592.9869563721153 726.9322176093626 590.5 725.7312349080398 C 588.85 724.9344290294158 587.1625 723.5439351338516 586.75 722.6412484734526 C 586.3375 721.7385618130537 586.0200364079815 719.3125 586.0445253510699 717.25 C 586.0711451932768 715.0080320900903 585.431200089862 712.8967871639638 584.4531837917123 712 L 582.8173168812849 710.5 L 584.6586584406425 709.233016763661 C 585.6713962982891 708.5361759836745 586.95 707.9590083526788 587.5 707.9504220281149 Z " class="even" fill="#ffffff"></path><path d="M 681 708 C 680.45 708 680.9877344850222 709.4625 682.1949655222716 711.25 C 683.402196559521 713.0375 686.439696559521 716.8825880446736 688.9449655222716 719.7946400992748 C 691.4502344850222 722.7066921538759 693.8375 725.0691921538759 694.25 725.0446400992748 C 694.6625 725.0200880446737 695.2690931412959 723.7625 695.5979847584354 722.25 C 696.0984858298971 719.9483059733476 695.4871595026049 718.7940883982134 691.8479847584354 715.1697946930815 C 689.4565931412959 712.7881817742763 686.2625 710.2006817742763 684.75 709.4197946930815 C 683.2375 708.6389076118867 681.55 708 681 708 Z " class="odd" fill="#000000"></path><path d="M 608.25 710.9722222222222 C 608.6625 710.9875 609 711.45 609 712 C 609 712.55 608.775 713.675 608.5 714.5 C 608.225 715.325 607.55 716 607 716 C 606.45 716 605.9875 715.2125 605.9722222222222 714.25 C 605.9569444444445 713.2875 606.2944444444445 712.15 606.7222222222222 711.7222222222222 C 607.15 711.2944444444445 607.8375 710.9569444444445 608.25 710.9722222222222 Z " class="even" fill="#ffffff"></path><path d="M 166 714 C 166.55 714 167.01704545454544 715.0125 167.03787878787878 716.25 C 167.05871212121212 717.4875 165.8212121212121 719.7656610036283 164.28787878787878 721.312580008063 C 162.75454545454545 722.8594990124977 159.925 724.5813178781237 158 725.1388441538986 C 156.075 725.6963704296735 152.475 726.0057094260452 150 725.8262641458356 C 146.2754213819452 725.5562204877428 145.5 725.155368274691 145.5 723.5 C 145.5 721.8397153193457 146.09450180885506 721.5367732615755 149 721.7164945734348 C 150.925 721.835566588824 154.92289010825843 720.935566588824 157.88420024057427 719.7164945734348 C 160.84551037289012 718.4974225580456 163.65801037289012 716.7125 164.13420024057427 715.75 C 164.61039010825843 714.7875 165.45 714 166 714 Z " class="even" fill="#ffffff"></path><path d="M 267.75 719.983016763661 C 268.1625 719.9736759836745 269.4 720.6118690533988 270.5 721.4012235852704 C 271.6 722.190578117142 272.13992723436513 723.2107205734945 271.69983829858916 723.6682068216094 C 271.2597493628132 724.1256930697242 270.1819205130266 724.05 269.3046630768413 723.5 C 268.42740564065593 722.95 267.5499784062908 721.9375 267.3548247782521 721.25 C 267.15967115021346 720.5625 267.3375 719.9923575436475 267.75 719.983016763661 Z " class="even" fill="#ffffff"></path><path d="M 290.71352752544925 723 C 291.6644728954774 724.375 293.46606890610826 727.525 294.71707421574 730 C 295.96807952537176 732.475 297.0135491342065 734.725 297.0403400131506 735 C 297.06713089209467 735.275 296.3378989928315 734.825 295.41982468145477 734 C 294.50175037007807 733.175 292.6817139620966 730.3625 291.3752993303849 727.75 C 290.06888469867323 725.1375 288.9965205873055 722.4375 288.99226797178994 721.75 C 288.9880153562744 721.0625 289.7625821554211 721.625 290.71352752544925 723 Z " class="even" fill="#ffffff"></path><path d="M 219.94978529429 724.5 C 224.32186657369758 724.5 228.38512907601694 724.95 228.97925752166634 725.5 C 229.57338596731577 726.05 229.93360557088835 728.525 229.77974552960538 731 C 229.53883408769613 734.8753130036462 229.22236133495386 735.4529957984271 227.5 735.1614001759076 C 226.4 734.9751702726567 223.25 734.6897652778382 220.5 734.5271668540888 C 216.59858165560829 734.2964888638395 215.12038199894926 733.7117357815426 213.7722358455888 731.8657666781812 C 212.82196556066265 730.5645950051816 212.0345885466657 728.375 212.0225091478178 727 L 212.000546604458 724.5 L 219.94978529429 724.5 Z " class="even" fill="#ffffff"></path><path d="M 632.234687225483 725.1969607234262 C 632.6387651994986 725.9136323255418 632.9762651994986 727.2875 632.984687225483 728.25 C 632.9931092514673 729.2125 632.325 730 631.5 730 C 630.675 730 629.7731831308358 729.2125 629.4959625129686 728.25 C 629.2187418951013 727.2875 629.5562418951013 725.9136323255418 630.2459625129686 725.1969607234262 L 631.5 723.8939214468525 L 632.234687225483 725.1969607234262 Z " class="even" fill="#ffffff"></path><path d="M 684 724 C 683.429814241676 724 683.2587551592969 725.181989164609 683.6020162530864 726.75 C 683.9331251922839 728.2625 685.5211953334511 732.425 687.1310610112357 736 C 688.7409266890203 739.575 690.0450193751315 743.0625 690.0290447581493 743.75 C 690.0130701411672 744.4375 689.6625 744.9919150910423 689.25 744.9820335356496 C 688.8375 744.972151980257 687.2108902763182 743.7346519802569 685.6353117251515 742.2320335356496 L 682.7706234503029 739.5 L 683.1502593912396 745.5 C 683.3628619308095 748.8601013493934 684.2932890513472 752.7099535481947 685.2649476660881 754.25 C 686.618732860162 756.3957043173501 687.7691035960999 757 690.5 757 L 694 757 L 693.75 753.9220308725619 C 693.6125 752.2291478524709 693.8375 750.6541478524708 694.25 750.4220308725619 C 694.6625 750.1899138926528 695 748.2 695 746 C 695 743.8 694.5314373437802 740.0875 693.958749652845 737.75 C 693.3860619619097 735.4125 691.1360619619097 731.3625 688.958749652845 728.75 C 686.7814373437802 726.1375 684.55 724 684 724 Z " class="odd" fill="#000000"></path><path d="M 279.5 725.9870758916616 C 280.6 725.9452062650709 282.0625 726.6059857058417 282.75 727.4554746489301 C 283.4375 728.3049635920186 283.8875 729.5140413296359 283.75 730.1423140658576 C 283.6094296482988 730.7846160258208 282.18684422041383 730.1418705875393 280.5 728.6739153085891 C 277.8530168978943 726.3704110661672 277.73534459859616 726.0542444941326 279.5 725.9870758916616 Z " class="even" fill="#ffffff"></path><path d="M 47.25 727.0833333333333 C 47.6625 727.0375 48 728.35 48 730 C 48 731.65 47.55 733.9 47 735 C 46.198899837571446 736.6022003248571 45.3535755278928 736.8826822510719 42.75 736.4101666931426 C 40.793914257080665 736.0551622247601 38.62251161767431 736.353757822548 37.295961187572956 737.1601666931426 C 35.425996682353734 738.2969165147008 34.85084645328618 738.27263945717 33.50143583650308 737 C 32.626668240249515 736.175 31.930985705841685 734.9375 31.95547464893012 734.25 C 31.97996359201855 733.5625 32.9 732.55 34 732 C 35.1 731.45 37.575 731 39.5 731 C 41.67391304347828 731 43.66304347826086 730.2738095238095 44.75 729.0833333333333 C 45.7125 728.0291666666666 46.8375 727.1291666666666 47.25 727.0833333333333 Z " class="even" fill="#ffffff"></path><path d="M 559.25 726.9674052644539 C 559.6625 726.9853323690043 559.7495746958502 728.2375 559.4434993241116 729.75 C 559.1374239523728 731.2625 558.2468146520064 735.425 557.4643675455192 739 C 556.681920439032 742.575 555.8073457431818 745.6125 555.5208682214077 745.75 C 555.2343906996334 745.8875 554.55 745.775 554 745.5 C 553.45 745.225 553 742.75 553 740 C 553 737.25 553.5078245699234 733.9875 554.1284990442741 732.75 C 554.749173518625 731.5125 555.986673518625 729.6978323690042 556.8784990442741 728.7174052644539 C 557.7703245699233 727.7369781599035 558.8375 726.9494781599035 559.25 726.9674052644539 Z " class="even" fill="#ffffff"></path><path d="M 572.25 727.5479500611566 C 572.6625 727.7965775275204 573.0129645707697 728.5625 573.028810157266 729.25 C 573.0446557437622 729.9375 571.9196557437622 731.0625 570.528810157266 731.75 L 568 733 L 568.1642831225172 740.25 C 568.2546388399015 744.2375 568.0296388399015 748.5125 567.6642831225172 749.75 C 567.2989274051328 750.9875 566.55 752 566 752 C 565.45 752 564.7811446074816 750.9875 564.5136546832924 749.75 C 564.2461647591033 748.5125 564.0211647591033 745.3625 564.0136546832924 742.75 C 564.0061446074816 740.1375 564.3944390190826 736.9875 564.8765311535168 735.75 C 565.358623287951 734.5125 567.046123287951 732.0590775275205 568.6265311535168 730.2979500611566 C 570.2069390190826 728.5368225947926 571.8375 727.2993225947927 572.25 727.5479500611566 Z " class="even" fill="#ffffff"></path><path d="M 543 730 C 543.55 730 544.2596029556471 731.0125 544.5768954569936 732.25 C 544.8941879583401 733.4875 544.6783220272083 734.95 544.0971933878118 735.5 C 543.3759230224877 736.1826349177014 542.7540517789743 735.7065872942535 542.1377111441784 734 C 541.6411245495765 732.625 541.4069904807083 731.1625 541.6174132133601 730.75 C 541.8278359460121 730.3375 542.45 730 543 730 Z " class="even" fill="#ffffff"></path><path d="M 600.5 731.3240333152678 C 601.05 731.5349897339031 601.4615058175011 733.235882591046 601.4144573722249 735.1037952200297 C 601.3674089269485 736.9717078490133 601.0299089269485 739.7375 600.6644573722249 741.25 C 600.2990058175012 742.7625 599.55 744 599 744 C 598.45 744 597.9875 741.4125 597.9722222222222 738.25 C 597.9569444444445 735.0875 598.2944444444445 732.1491071428571 598.7222222222222 731.7202380952381 C 599.15 731.291369047619 599.95 731.1130768966324 600.5 731.3240333152678 Z " class="even" fill="#ffffff"></path><path d="M 618 732 C 618.55 732 619.8862543191052 733.0125 620.969454042456 734.25 C 622.0526537658069 735.4875 622.7276537658068 736.8375 622.469454042456 737.25 C 622.2112543191053 737.6625 620.8634286117581 736.9875 619.4742858039067 735.75 C 618.0851429960554 734.5125 616.9601429960554 733.1625 616.9742858039067 732.75 C 616.9884286117581 732.3375 617.45 732 618 732 Z " class="even" fill="#ffffff"></path><path d="M 610.6253658359162 735.5 C 611.4298733684001 736.6 611.9557827731533 738.85 611.7940534020344 740.5 C 611.6108277863445 742.3693095990958 610.934654799548 743.5 610 743.5 C 609.1532295655697 743.5 608.3586363878877 742.4112840573837 608.1753891291135 741 C 607.9968531501257 739.625 608.1459437453726 737.375 608.5067015629952 736 L 609.1626248677637 733.5 L 610.6253658359162 735.5 Z " class="even" fill="#ffffff"></path><path d="M 172.5 735 C 172.775 735 173.225 735.45 173.5 736 C 173.775 736.55 173.55 737 173 737 C 172.45 737 172 736.55 172 736 C 172 735.45 172.225 735 172.5 735 Z " class="even" fill="#ffffff"></path><path d="M 586.25 736.9849303652874 C 585.5625 736.9932186643794 584.3638731013201 738.0125 583.5863846696003 739.25 C 582.8088962378805 740.4875 581.5713962378804 743.3973716097847 580.8363846696003 745.7163813550771 C 579.7581470069186 749.1182919581315 579.7414602367033 750.4221772363294 580.75 752.4663813550771 C 581.7856394172745 754.5655136246961 582.3429769323608 754.8285115338196 584 754 C 585.3876286718134 753.3061856640933 585.997704359768 752.0048965916968 585.9925024568383 749.75 C 585.9883788080995 747.9625 586.3258788080996 744.3557186643793 586.7425024568383 741.7349303652874 C 587.3071686571527 738.1828742706416 587.1817954318993 736.9736969118588 586.25 736.9849303652874 Z " class="odd" fill="#000000"></path><path d="M 260.25 742.571488363455 C 261.7625 743.3571697635548 263.5625 743.9904358290947 264.25 743.9787462868771 C 264.9375 743.9670567446595 266.7294150910423 745.2045567446596 268.23203353564963 746.7287462868771 C 269.73465198025696 748.2529358290947 270.9721519802569 750.0625 270.98203353564963 750.75 C 270.99191509104236 751.4375 269.9875 751.9957771722644 268.75 751.9906159383652 C 267.5125 751.9854547044661 264.1375 750.6354547044662 261.25 748.9906159383652 C 258.3625 747.3457771722643 255.66250000000002 745.2857932564789 255.25 744.4128739032864 C 254.7776889745672 743.4133843643131 255.05537794913442 742.5142231562108 256 741.9843622667414 C 256.91460972210376 741.4713360035632 258.5732155094764 741.7004679428401 260.25 742.571488363455 Z " class="even" fill="#ffffff"></path><path d="M 134 742.5 C 134.55 742.775 134.9856884826583 744.2375 134.96819662812953 745.75 L 134.9363932562591 748.5 L 133.52263783798855 746.5 C 132.7450723579398 745.4 132.30938387528147 743.9375 132.55444120985902 743.25 C 132.79949854443657 742.5625 133.45 742.225 134 742.5 Z " class="even" fill="#ffffff"></path><path d="M 239 743.5 C 239.55 743.775 240.01910182098055 745.2375 240.0424484910679 746.75 C 240.06579516115522 748.2625 239.18076633927282 750.625 238.07571777577363 752 L 236.0665385694115 754.5 L 236.01670997590367 752 C 235.98930424947434 750.625 236.42433307135676 748.0375 236.98344069119793 746.25 C 237.54254831103907 744.4625 238.45 743.225 239 743.5 Z " class="even" fill="#ffffff"></path><path d="M 640 744 C 640.55 744 641 744.45 641 745 C 641 745.55 640.55 746.225 640 746.5 C 639.45 746.775 639 746.325 639 745.5 C 639 744.675 639.45 744 640 744 Z " class="even" fill="#ffffff"></path><path d="M 652.25 744.9922679717899 C 652.9375 744.9880153562744 654.5125 745.6630153562744 655.75 746.4922679717899 C 656.9875 747.3215205873055 658 748.45 658 749 C 658 749.55 656.2 750.9 654 752 C 651.8 753.1 649.325 754 648.5 754 C 647.675 754 647.0016821271969 753.4375 647.0037380604376 752.75 C 647.0057939936783 752.0625 647.9057939936782 750.0375 649.0037380604376 748.25 C 650.1016821271969 746.4625 651.5625 744.9965205873054 652.25 744.9922679717899 Z " class="even" fill="#ffffff"></path><path d="M 180.25 746.015312774517 C 181.2125 746.0068907485327 181.775 746.45 181.5 747 C 181.225 747.55 179.7625 747.9931092514673 178.25 747.984687225483 C 176.1070630416406 747.9727547489565 175.83112529544033 747.755384849987 177 747 C 177.825 746.4668440519688 179.2875 746.0237348005014 180.25 746.015312774517 Z " class="even" fill="#ffffff"></path><path d="M 76.5 747.5 C 77.325 747.775 78 748.45 78 749 C 78 749.55 77.325 749.775 76.5 749.5 C 75.675 749.225 75 748.55 75 748 C 75 747.45 75.675 747.225 76.5 747.5 Z " class="even" fill="#ffffff"></path></g></svg>